if (_typeface_js && _typeface_js.loadFace) _typeface_js.loadFace({"glyphs":{"¦":{"x_min":99,"x_max":210,"ha":308,"o":"m 99 243 l 210 243 l 210 -243 l 99 -243 l 99 243 m 99 938 l 210 938 l 210 451 l 99 451 l 99 938 "},"Ž":{"x_min":21,"x_max":442,"ha":463,"o":"m 21 125 l 287 856 l 35 856 l 35 989 l 442 989 l 442 876 l 169 133 l 442 133 l 442 0 l 21 0 l 21 125 m 297 1033 l 166 1033 l 30 1229 l 139 1229 l 232 1097 l 325 1229 l 433 1229 l 297 1033 "},"Á":{"x_min":2.78125,"x_max":562.546875,"ha":565,"o":"m 283 704 l 280 704 l 211 346 l 352 346 l 283 704 m 223 989 l 341 989 l 562 0 l 420 0 l 379 213 l 186 213 l 144 0 l 2 0 l 223 989 m 318 1229 l 468 1229 l 284 1033 l 193 1033 l 318 1229 "},"Î":{"x_min":-59.40625,"x_max":343.40625,"ha":283,"o":"m 71 989 l 213 989 l 213 0 l 71 0 l 71 989 m 76 1229 l 207 1229 l 343 1033 l 235 1033 l 142 1164 l 48 1033 l -59 1033 l 76 1229 "},"e":{"x_min":46,"x_max":468,"ha":514,"o":"m 188 299 l 188 203 q 206 152 188 170 q 257 134 225 134 q 310 157 297 134 q 326 205 323 181 l 468 205 q 453 121 468 160 q 411 54 438 82 q 344 8 383 25 q 257 -8 305 -8 q 144 19 191 -8 q 72 93 97 47 q 51 157 57 121 q 46 236 46 193 l 46 468 q 51 547 46 511 q 72 611 57 583 q 144 685 97 657 q 257 713 191 713 q 345 696 305 713 q 411 649 384 679 q 453 579 438 619 q 468 493 468 539 l 468 299 l 188 299 m 188 410 l 326 410 l 326 490 q 307 550 326 530 q 257 571 288 571 q 206 550 225 571 q 188 490 188 530 l 188 410 "},"»":{"x_min":38.890625,"x_max":577.828125,"ha":592,"o":"m 295 245 l 436 384 l 295 523 l 295 665 l 577 384 l 295 104 l 295 245 m 38 245 l 179 384 l 38 523 l 38 665 l 320 384 l 38 104 l 38 245 "},"∆":{"x_min":30.5625,"x_max":594.484375,"ha":626,"o":"m 30 88 l 241 989 l 395 989 l 594 93 l 594 0 l 30 0 l 30 88 m 461 119 l 368 530 q 354 595 362 561 q 339 662 347 629 q 325 727 331 695 q 315 782 319 758 l 313 782 q 290 672 306 736 q 262 545 273 609 l 162 119 l 461 119 "},"ò":{"x_min":46,"x_max":468,"ha":514,"o":"m 46 468 q 51 547 46 511 q 72 611 57 583 q 144 685 97 657 q 257 713 191 713 q 369 685 322 713 q 441 611 416 657 q 462 547 456 583 q 468 468 468 511 l 468 236 q 462 157 468 193 q 441 93 456 121 q 369 19 416 47 q 257 -8 322 -8 q 144 19 191 -8 q 72 93 97 47 q 51 157 57 121 q 46 236 46 193 l 46 468 m 188 214 q 206 154 188 174 q 257 134 225 134 q 307 154 288 134 q 326 214 326 174 l 326 490 q 307 550 326 530 q 257 571 288 571 q 206 550 225 571 q 188 490 188 530 l 188 214 m 346 797 l 255 797 l 72 993 l 222 993 l 346 797 "},"^":{"x_min":69.453125,"x_max":763.953125,"ha":833,"o":"m 370 989 l 462 989 l 763 393 l 652 393 l 416 863 l 180 393 l 69 393 l 370 989 "},"«":{"x_min":13.890625,"x_max":552.828125,"ha":592,"o":"m 552 523 l 412 384 l 552 245 l 552 104 l 270 384 l 552 665 l 552 523 m 295 523 l 155 384 l 295 245 l 295 104 l 13 384 l 295 665 l 295 523 "},"∙":{"x_min":40,"x_max":218,"ha":258,"o":"m 40 414 q 66 476 40 450 q 129 503 92 503 q 191 476 165 503 q 218 414 218 450 q 191 351 218 377 q 129 325 165 325 q 66 351 92 325 q 40 414 40 377 "},"":{"x_min":47,"x_max":470,"ha":517,"o":"m 47 784 q 64 873 47 834 q 111 940 81 912 q 178 982 140 967 q 258 997 216 997 q 338 982 300 997 q 405 940 376 967 q 452 873 435 912 q 470 784 470 834 l 470 204 q 452 115 470 154 q 405 48 435 76 q 338 6 376 21 q 258 -8 300 -8 q 178 6 216 -8 q 111 49 140 21 q 64 115 81 76 q 47 205 47 154 l 189 205 q 208 154 189 174 q 258 134 227 134 q 308 154 289 134 q 328 204 328 174 l 328 337 q 263 314 294 322 q 197 306 233 306 q 127 324 159 306 q 77 369 95 342 q 52 428 58 398 q 47 500 47 457 l 47 784 m 189 501 q 209 450 189 469 q 258 431 230 431 q 307 450 286 431 q 328 501 328 469 l 328 784 q 307 835 328 816 q 258 855 286 855 q 209 835 230 855 q 189 784 189 816 l 189 501 "},"í":{"x_min":38.890625,"x_max":313.90625,"ha":258,"o":"m 58 704 l 200 704 l 200 0 l 58 0 l 58 704 m 163 993 l 313 993 l 130 797 l 38 797 l 163 993 "},"ˆ":{"x_min":-72,"x_max":331,"ha":259,"o":"m 64 993 l 194 993 l 331 797 l 222 797 l 129 929 l 36 797 l -72 797 l 64 993 "},"µ":{"x_min":58,"x_max":482,"ha":540,"o":"m 482 0 l 340 0 l 340 69 l 337 69 q 315 34 327 49 q 292 10 303 19 q 245 -8 269 -8 q 203 6 216 -8 l 200 5 l 200 -285 l 58 -285 l 58 704 l 200 704 l 200 217 q 218 156 200 178 q 269 134 236 134 q 324 158 309 134 q 340 231 340 183 l 340 704 l 482 704 l 482 0 "},"’":{"x_min":58,"x_max":200,"ha":258,"o":"m 58 989 l 200 989 l 200 847 l 58 744 l 58 989 "},"-":{"x_min":61,"x_max":479,"ha":540,"o":"m 61 456 l 479 456 l 479 314 l 61 314 l 61 456 "},"Q":{"x_min":58,"x_max":600.671875,"ha":592,"o":"m 200 233 q 228 158 200 182 q 296 134 257 134 q 326 139 314 134 l 262 190 l 334 276 l 392 230 l 392 233 l 392 755 q 363 830 392 806 q 296 855 334 855 q 228 830 257 855 q 200 755 200 806 l 200 233 m 58 755 q 78 860 58 815 q 133 936 99 906 q 210 981 167 966 q 296 997 252 997 q 381 981 339 997 q 458 936 424 966 q 513 860 492 906 q 534 755 534 815 l 534 233 q 512 132 534 175 l 600 61 l 528 -24 l 444 43 q 374 4 412 16 q 295 -8 336 -8 q 210 7 252 -8 q 133 52 167 22 q 78 127 99 82 q 58 233 58 172 l 58 755 "},"M":{"x_min":67,"x_max":706,"ha":773,"o":"m 67 989 l 203 989 l 384 465 l 387 465 l 568 989 l 706 989 l 706 0 l 564 0 l 564 601 l 561 601 l 421 176 l 350 176 l 211 601 l 209 601 l 209 0 l 67 0 l 67 989 "},"œ":{"x_min":46,"x_max":750,"ha":796,"o":"m 46 468 q 51 547 46 511 q 72 611 57 583 q 144 685 97 657 q 257 713 192 713 q 338 699 302 713 q 398 665 374 685 q 462 701 425 689 q 538 713 498 713 q 626 696 587 713 q 693 649 666 679 q 735 579 720 619 q 750 493 750 539 l 750 299 l 469 299 l 469 203 q 487 152 469 170 q 538 134 506 134 q 592 157 578 134 q 608 204 605 181 l 750 204 q 735 121 750 160 q 692 54 720 82 q 626 8 665 25 q 538 -8 587 -8 q 457 3 499 -8 q 392 40 416 15 q 333 5 368 18 q 257 -8 297 -8 q 144 19 192 -8 q 72 93 97 47 q 51 157 57 121 q 46 236 46 193 l 46 468 m 469 410 l 608 410 l 608 490 q 589 550 608 530 q 538 571 570 571 q 487 550 506 571 q 469 490 469 530 l 469 410 m 188 214 q 206 154 188 174 q 257 134 225 134 q 308 154 289 134 q 327 214 327 174 l 327 490 q 308 550 327 530 q 257 571 289 571 q 206 550 225 571 q 188 490 188 530 l 188 214 "},"{":{"x_min":4,"x_max":304.109375,"ha":308,"o":"m 4 468 q 67 511 42 468 q 93 623 93 555 l 93 834 q 133 948 93 908 q 229 989 173 989 l 304 989 l 304 906 l 279 906 q 231 881 245 906 q 218 814 218 857 l 218 604 q 208 525 218 558 q 184 472 198 493 q 153 440 170 451 q 122 426 135 429 l 122 423 q 153 410 135 420 q 184 379 170 400 q 208 325 198 358 q 218 244 218 291 l 218 37 q 231 -31 218 -7 q 279 -56 245 -56 l 304 -56 l 304 -139 l 229 -139 q 133 -98 173 -139 q 93 15 93 -58 l 93 225 q 67 340 93 296 q 4 385 42 385 l 4 468 "},"¼":{"x_min":15.328125,"x_max":755.65625,"ha":771,"o":"m 631 1012 l 715 1012 l 108 -23 l 24 -23 l 631 1012 m 107 888 l 15 829 l 15 929 l 107 989 l 218 989 l 218 399 l 107 399 l 107 888 m 603 86 l 404 86 l 404 172 l 540 593 l 651 593 l 520 178 l 603 178 l 603 337 l 714 337 l 714 178 l 755 178 l 755 86 l 714 86 l 714 0 l 603 0 l 603 86 "},"#":{"x_min":8.328125,"x_max":508.375,"ha":517,"o":"m 290 299 l 173 299 l 133 0 l 38 0 l 79 299 l 8 299 l 8 382 l 90 382 l 120 607 l 51 607 l 51 690 l 131 690 l 172 989 l 266 989 l 226 690 l 343 690 l 383 989 l 477 989 l 437 690 l 508 690 l 508 607 l 426 607 l 395 382 l 465 382 l 465 299 l 384 299 l 344 0 l 250 0 l 290 299 m 331 607 l 215 607 l 184 382 l 301 382 l 331 607 "},"Ê":{"x_min":67,"x_max":489.578125,"ha":514,"o":"m 67 989 l 489 989 l 489 856 l 209 856 l 209 565 l 453 565 l 453 432 l 209 432 l 209 142 l 489 142 l 489 0 l 67 0 l 67 989 m 205 1229 l 336 1229 l 472 1033 l 364 1033 l 271 1164 l 178 1033 l 69 1033 l 205 1229 "},")":{"x_min":26.15625,"x_max":239,"ha":308,"o":"m 26 -138 q 81 157 66 4 q 97 463 97 311 q 78 736 97 605 q 26 989 59 866 l 73 989 q 146 857 115 927 q 197 713 177 787 q 228 566 218 640 q 239 425 239 491 q 227 278 239 354 q 195 129 216 202 q 142 -12 173 55 q 73 -138 112 -80 l 26 -138 "},"Å":{"x_min":3.328125,"x_max":562.6875,"ha":565,"o":"m 283 704 l 280 704 l 211 346 l 352 346 l 283 704 m 224 989 l 341 989 l 562 0 l 421 0 l 379 213 l 186 213 l 145 0 l 3 0 l 224 989 m 142 1160 q 153 1214 142 1189 q 183 1260 164 1240 q 228 1290 203 1279 q 283 1302 254 1302 q 338 1290 312 1302 q 383 1260 363 1279 q 413 1214 402 1240 q 425 1160 425 1189 q 413 1105 425 1130 q 383 1059 402 1079 q 338 1029 363 1040 q 283 1018 312 1018 q 228 1029 254 1018 q 183 1059 203 1040 q 153 1105 164 1079 q 142 1160 142 1130 m 199 1160 q 223 1099 199 1123 q 283 1075 247 1075 q 343 1099 319 1075 q 368 1160 368 1123 q 343 1220 368 1196 q 283 1245 319 1245 q 223 1220 247 1245 q 199 1160 199 1196 "},"¸":{"x_min":-20.890625,"x_max":279,"ha":258,"o":"m 118 0 l 181 0 l 117 -83 q 139 -81 129 -82 q 161 -81 149 -81 q 217 -90 195 -81 q 254 -116 240 -100 q 273 -150 267 -132 q 279 -184 279 -168 q 263 -242 279 -218 q 222 -281 247 -266 q 167 -304 197 -297 q 108 -311 137 -311 q 33 -301 68 -311 q -20 -285 -1 -291 l 2 -226 q 47 -240 24 -234 q 93 -247 69 -247 q 117 -244 104 -247 q 141 -236 130 -242 q 160 -219 152 -230 q 168 -190 168 -208 q 148 -152 168 -166 q 105 -138 129 -138 q 51 -147 76 -138 l 27 -119 l 118 0 "},"a":{"x_min":35,"x_max":468,"ha":514,"o":"m 326 72 l 323 72 q 266 12 295 33 q 187 -8 238 -8 q 136 0 162 -8 q 86 27 109 7 q 49 84 64 47 q 35 179 35 121 q 44 284 35 239 q 80 359 54 329 q 148 403 105 388 q 258 418 191 418 q 288 416 273 418 q 326 414 303 415 l 326 487 q 310 547 326 523 q 255 571 295 571 q 205 552 228 571 q 176 500 182 534 l 38 500 q 101 653 44 596 q 168 696 129 680 q 255 713 207 713 q 339 699 300 713 q 406 657 377 685 q 451 587 434 629 q 468 490 468 546 l 468 0 l 326 0 l 326 72 m 326 302 q 287 307 302 307 q 209 285 241 307 q 177 207 177 264 q 196 141 177 166 q 250 117 215 117 q 305 140 285 117 q 326 207 326 164 l 326 302 "},"=":{"x_min":65.28125,"x_max":768.109375,"ha":833,"o":"m 65 546 l 768 546 l 768 435 l 65 435 l 65 546 m 65 268 l 768 268 l 768 157 l 65 157 l 65 268 "},"˚":{"x_min":-13,"x_max":271,"ha":258,"o":"m -13 916 q -1 971 -13 945 q 28 1016 9 996 q 74 1046 48 1035 q 129 1058 99 1058 q 183 1046 158 1058 q 229 1016 209 1035 q 259 971 248 996 q 271 916 271 945 q 259 861 271 887 q 229 816 248 836 q 183 786 209 797 q 129 775 158 775 q 74 786 99 775 q 28 816 48 797 q -1 861 9 836 q -13 916 -13 887 m 44 916 q 68 856 44 880 q 129 832 92 832 q 189 856 165 832 q 214 916 214 880 q 189 976 214 952 q 129 1001 165 1001 q 68 976 92 1001 q 44 916 44 952 "},"ú":{"x_min":58,"x_max":482,"ha":540,"o":"m 482 0 l 340 0 l 340 68 l 337 68 q 283 13 314 35 q 204 -8 252 -8 q 151 1 177 -8 q 103 30 124 10 q 70 84 83 51 q 58 164 58 116 l 58 704 l 200 704 l 200 217 q 218 156 200 178 q 269 134 236 134 q 324 158 309 134 q 340 231 340 183 l 340 704 l 482 704 l 482 0 m 305 993 l 455 993 l 272 797 l 180 797 l 305 993 "},"¯":{"x_min":-61,"x_max":320,"ha":259,"o":"m -61 926 l 320 926 l 320 843 l -61 843 l -61 926 "},"Z":{"x_min":21,"x_max":442,"ha":463,"o":"m 21 125 l 287 856 l 35 856 l 35 989 l 442 989 l 442 876 l 169 133 l 442 133 l 442 0 l 21 0 l 21 125 "},"u":{"x_min":58,"x_max":482,"ha":540,"o":"m 482 0 l 340 0 l 340 68 l 337 68 q 283 13 314 35 q 204 -8 252 -8 q 151 1 177 -8 q 103 30 124 10 q 70 84 83 51 q 58 164 58 116 l 58 704 l 200 704 l 200 217 q 218 156 200 178 q 269 134 236 134 q 324 158 309 134 q 340 231 340 183 l 340 704 l 482 704 l 482 0 "},"k":{"x_min":58,"x_max":550.03125,"ha":540,"o":"m 58 989 l 200 989 l 200 397 l 202 397 l 373 704 l 515 704 l 347 418 l 550 0 l 395 0 l 268 304 l 200 197 l 200 0 l 58 0 l 58 989 "},"Ù":{"x_min":67,"x_max":525,"ha":592,"o":"m 525 222 q 506 132 525 173 q 457 59 488 90 q 384 10 426 28 q 296 -8 343 -8 q 207 10 248 -8 q 134 59 165 28 q 85 132 103 90 q 67 222 67 173 l 67 989 l 209 989 l 209 236 q 233 158 209 183 q 296 134 258 134 q 358 158 333 134 q 383 236 383 183 l 383 989 l 525 989 l 525 222 m 386 1033 l 294 1033 l 111 1229 l 261 1229 l 386 1033 "},"¢":{"x_min":47,"x_max":470,"ha":517,"o":"m 228 571 q 200 544 211 565 q 189 496 189 525 l 189 197 q 228 134 189 147 l 228 571 m 228 -8 q 135 22 175 -3 q 73 89 95 48 q 52 153 58 117 q 47 232 47 189 l 47 471 q 52 550 47 514 q 73 614 58 586 q 135 681 95 654 q 228 713 175 707 l 228 817 l 285 817 l 285 713 q 420 644 371 706 q 470 487 470 582 l 328 487 q 316 544 328 524 q 285 571 305 564 l 285 134 q 316 162 308 142 q 328 205 325 182 l 470 205 q 455 119 470 159 q 412 51 440 79 q 357 10 389 26 q 285 -8 325 -5 l 285 -124 l 228 -124 l 228 -8 "},"Ş":{"x_min":39,"x_max":525,"ha":564,"o":"m 525 703 l 383 703 l 383 735 q 360 819 383 784 q 283 855 337 855 q 235 843 254 855 q 206 815 217 832 q 192 775 196 798 q 188 727 188 752 q 190 678 188 698 q 200 643 192 657 q 224 617 208 628 q 268 595 240 606 l 376 552 q 452 510 423 534 q 497 453 482 485 q 519 378 513 420 q 525 281 525 336 q 512 166 525 219 q 471 74 500 112 q 395 14 443 36 q 280 -8 348 -8 q 184 10 229 -8 q 108 59 140 28 q 57 133 76 90 q 39 227 39 177 l 39 279 l 181 279 l 181 235 q 203 165 181 196 q 280 134 226 134 q 336 144 316 134 q 367 173 356 154 q 380 220 377 192 q 383 281 383 247 q 380 344 383 319 q 368 385 377 369 q 343 410 359 400 q 301 430 327 419 l 199 472 q 77 571 108 510 q 46 726 46 633 q 61 831 46 781 q 106 917 76 881 q 182 975 136 953 q 288 997 227 997 q 385 977 341 997 q 460 926 429 958 q 508 854 491 893 q 525 773 525 814 l 525 703 m 271 0 l 334 0 l 270 -83 q 292 -81 282 -82 q 313 -81 302 -81 q 370 -90 348 -81 q 407 -116 393 -100 q 426 -150 420 -132 q 432 -184 432 -168 q 416 -242 432 -218 q 375 -281 400 -266 q 320 -304 350 -297 q 261 -311 290 -311 q 186 -301 220 -311 q 132 -285 151 -291 l 155 -226 q 200 -240 177 -234 q 246 -247 222 -247 q 270 -244 257 -247 q 294 -236 283 -242 q 313 -219 305 -230 q 321 -190 321 -208 q 301 -152 321 -166 q 258 -138 282 -138 q 204 -147 229 -138 l 180 -119 l 271 0 "},"é":{"x_min":46,"x_max":468,"ha":514,"o":"m 188 299 l 188 203 q 206 152 188 170 q 257 134 225 134 q 310 157 297 134 q 326 205 323 181 l 468 205 q 453 121 468 160 q 411 54 438 82 q 344 8 383 25 q 257 -8 305 -8 q 144 19 191 -8 q 72 93 97 47 q 51 157 57 121 q 46 236 46 193 l 46 468 q 51 547 46 511 q 72 611 57 583 q 144 685 97 657 q 257 713 191 713 q 345 696 305 713 q 411 649 384 679 q 453 579 438 619 q 468 493 468 539 l 468 299 l 188 299 m 188 410 l 326 410 l 326 490 q 307 550 326 530 q 257 571 288 571 q 206 550 225 571 q 188 490 188 530 l 188 410 m 291 993 l 441 993 l 258 797 l 167 797 l 291 993 "},"B":{"x_min":67,"x_max":525,"ha":592,"o":"m 67 989 l 273 989 q 389 968 341 989 q 468 912 437 947 q 511 832 498 877 q 525 738 525 787 l 525 702 q 518 634 525 662 q 500 585 512 606 q 469 549 487 564 q 428 519 451 533 q 501 449 477 495 q 525 324 525 402 l 525 269 q 461 69 525 138 q 259 0 398 0 l 67 0 l 67 989 m 209 142 l 270 142 q 337 154 312 142 q 373 189 361 166 q 389 241 386 211 q 392 308 392 272 q 387 373 392 345 q 370 419 383 401 q 333 448 357 438 q 271 458 310 458 l 209 458 l 209 142 m 209 583 l 272 583 q 367 618 343 583 q 392 722 392 654 q 364 822 392 789 q 267 856 337 856 l 209 856 l 209 583 "},"…":{"x_min":161,"x_max":1229,"ha":1390,"o":"m 161 142 l 303 142 l 303 0 l 161 0 l 161 142 m 624 142 l 766 142 l 766 0 l 624 0 l 624 142 m 1087 142 l 1229 142 l 1229 0 l 1087 0 l 1087 142 "},"H":{"x_min":67,"x_max":525,"ha":592,"o":"m 67 989 l 209 989 l 209 565 l 383 565 l 383 989 l 525 989 l 525 0 l 383 0 l 383 440 l 209 440 l 209 0 l 67 0 l 67 989 "},"î":{"x_min":-72.40625,"x_max":330.40625,"ha":258,"o":"m 58 704 l 200 704 l 200 0 l 58 0 l 58 704 m 63 993 l 194 993 l 330 797 l 222 797 l 129 929 l 35 797 l -72 797 l 63 993 "},"−":{"x_min":65.28125,"x_max":768.109375,"ha":833,"o":"m 65 407 l 768 407 l 768 296 l 65 296 l 65 407 "},"≠":{"x_min":51.390625,"x_max":504.203125,"ha":557,"o":"m 372 556 l 504 556 l 504 470 l 345 470 l 284 315 l 504 315 l 504 230 l 256 230 l 209 110 l 145 131 l 184 230 l 51 230 l 51 315 l 212 315 l 272 470 l 51 470 l 51 556 l 300 556 l 347 676 l 411 654 l 372 556 "},"¥":{"x_min":5.875,"x_max":511.125,"ha":517,"o":"m 192 239 l 33 239 l 33 331 l 192 331 l 192 399 l 33 399 l 33 491 l 169 491 l 5 989 l 147 989 l 257 595 l 259 595 l 369 989 l 511 989 l 347 491 l 483 491 l 483 399 l 325 399 l 325 331 l 483 331 l 483 239 l 325 239 l 325 0 l 192 0 l 192 239 "},"U":{"x_min":67,"x_max":525,"ha":592,"o":"m 525 222 q 506 132 525 173 q 457 59 488 90 q 384 10 426 28 q 296 -8 343 -8 q 207 10 248 -8 q 134 59 165 28 q 85 132 103 90 q 67 222 67 173 l 67 989 l 209 989 l 209 236 q 233 158 209 183 q 296 134 258 134 q 358 158 333 134 q 383 236 383 183 l 383 989 l 525 989 l 525 222 "},"Ñ":{"x_min":61,"x_max":556,"ha":617,"o":"m 61 989 l 197 989 l 411 393 l 414 393 l 414 989 l 556 989 l 556 0 l 422 0 l 205 594 l 203 594 l 203 0 l 61 0 l 61 989 m 545 1207 q 528 1147 538 1175 q 501 1098 518 1119 q 461 1065 485 1077 q 404 1053 437 1053 q 359 1061 387 1053 q 300 1079 330 1069 q 243 1099 269 1090 q 204 1108 217 1108 q 160 1090 175 1108 q 143 1046 144 1073 l 72 1046 q 88 1105 78 1077 q 115 1154 98 1133 q 155 1187 132 1175 q 212 1200 179 1200 q 258 1191 229 1200 q 317 1171 286 1182 q 374 1153 347 1161 q 412 1145 401 1145 q 457 1162 442 1145 q 474 1207 472 1179 l 545 1207 "},"F":{"x_min":67,"x_max":489.578125,"ha":514,"o":"m 67 989 l 489 989 l 489 856 l 209 856 l 209 555 l 453 555 l 453 422 l 209 422 l 209 0 l 67 0 l 67 989 "},"*":{"x_min":42.546875,"x_max":471.015625,"ha":514,"o":"m 81 911 l 218 827 l 212 989 l 301 989 l 296 827 l 432 911 l 471 838 l 332 761 l 471 684 l 432 611 l 296 694 l 301 533 l 212 533 l 218 694 l 81 611 l 42 684 l 181 761 l 42 838 l 81 911 "},"†":{"x_min":7.875,"x_max":505.125,"ha":514,"o":"m 194 550 l 7 550 l 7 675 l 194 675 l 194 989 l 319 989 l 319 675 l 505 675 l 505 550 l 319 550 l 319 -285 l 194 -285 l 194 550 "},"∕":{"x_min":-229,"x_max":461,"ha":232,"o":"m 377 1012 l 461 1012 l -145 -24 l -229 -24 l 377 1012 "},"°":{"x_min":25,"x_max":336,"ha":361,"o":"m 96 841 q 120 781 96 805 q 180 757 144 757 q 240 781 216 757 q 265 841 265 805 q 240 901 265 877 q 180 926 216 926 q 120 901 144 926 q 96 841 96 877 m 25 841 q 37 901 25 873 q 70 951 49 930 q 120 984 91 972 q 180 997 148 997 q 240 984 212 997 q 290 951 269 972 q 323 901 311 930 q 336 841 336 873 q 323 781 336 809 q 290 731 311 752 q 240 698 269 710 q 180 686 212 686 q 120 698 148 686 q 70 731 91 710 q 37 781 49 752 q 25 841 25 809 "},"å":{"x_min":35,"x_max":468,"ha":514,"o":"m 326 72 l 323 72 q 267 12 295 33 q 187 -8 239 -8 q 136 0 162 -8 q 87 27 109 7 q 49 84 64 47 q 35 179 35 121 q 44 284 35 239 q 80 359 54 329 q 148 403 105 388 q 258 418 191 418 q 288 416 273 418 q 326 414 303 415 l 326 487 q 310 547 326 523 q 255 571 295 571 q 205 552 228 571 q 176 500 182 534 l 38 500 q 101 653 44 596 q 168 696 129 680 q 255 713 207 713 q 339 699 300 713 q 406 657 377 685 q 451 587 434 629 q 468 490 468 546 l 468 0 l 326 0 l 326 72 m 326 302 q 287 307 302 307 q 209 285 241 307 q 177 207 177 264 q 196 141 177 166 q 250 117 215 117 q 305 140 285 117 q 326 207 326 164 l 326 302 m 116 916 q 127 971 116 945 q 157 1016 138 996 q 202 1046 176 1035 q 257 1058 227 1058 q 311 1046 286 1058 q 356 1016 337 1035 q 386 971 375 996 q 398 916 398 945 q 386 861 398 887 q 356 816 375 836 q 311 786 337 797 q 257 775 286 775 q 202 786 227 775 q 157 816 176 797 q 127 861 138 836 q 116 916 116 887 m 173 916 q 197 856 173 880 q 257 832 221 832 q 316 856 292 832 q 341 916 341 880 q 316 976 341 952 q 257 1001 292 1001 q 197 976 221 1001 q 173 916 173 952 "},"0":{"x_min":47,"x_max":470,"ha":517,"o":"m 47 784 q 64 873 47 834 q 111 940 81 912 q 178 982 140 967 q 258 997 216 997 q 338 982 300 997 q 405 940 376 967 q 452 873 435 912 q 470 784 470 834 l 470 204 q 452 115 470 154 q 405 48 435 76 q 338 6 376 21 q 258 -8 300 -8 q 178 6 216 -8 q 111 48 140 21 q 64 115 81 76 q 47 204 47 154 l 47 784 m 189 204 q 208 154 189 174 q 258 134 227 134 q 308 154 289 134 q 328 204 328 174 l 328 784 q 308 834 328 814 q 258 855 289 855 q 208 834 227 855 q 189 784 189 814 l 189 204 "},"”":{"x_min":25,"x_max":361,"ha":386,"o":"m 25 989 l 167 989 l 167 847 l 25 744 l 25 989 m 219 989 l 361 989 l 361 847 l 219 744 l 219 989 "},"ö":{"x_min":46,"x_max":468,"ha":514,"o":"m 46 468 q 51 547 46 511 q 72 611 57 583 q 144 685 97 657 q 257 713 191 713 q 369 685 322 713 q 441 611 416 657 q 462 547 456 583 q 468 468 468 511 l 468 236 q 462 157 468 193 q 441 93 456 121 q 369 19 416 47 q 257 -8 322 -8 q 144 19 191 -8 q 72 93 97 47 q 51 157 57 121 q 46 236 46 193 l 46 468 m 188 214 q 206 154 188 174 q 257 134 225 134 q 307 154 288 134 q 326 214 326 174 l 326 490 q 307 550 326 530 q 257 571 288 571 q 206 550 225 571 q 188 490 188 530 l 188 214 m 82 956 l 207 956 l 207 814 l 82 814 l 82 956 m 307 956 l 432 956 l 432 814 l 307 814 l 307 956 "},"Õ":{"x_min":58,"x_max":534,"ha":592,"o":"m 58 755 q 78 860 58 815 q 133 936 99 906 q 210 981 167 966 q 296 997 252 997 q 381 981 339 997 q 458 936 424 966 q 513 860 492 906 q 534 755 534 815 l 534 233 q 513 127 534 172 q 458 52 492 82 q 381 7 424 22 q 296 -8 339 -8 q 210 7 252 -8 q 133 52 167 22 q 78 127 99 82 q 58 233 58 172 l 58 755 m 200 233 q 228 158 200 182 q 296 134 257 134 q 363 158 334 134 q 392 233 392 182 l 392 755 q 363 830 392 806 q 296 855 334 855 q 228 830 257 855 q 200 755 200 806 l 200 233 m 532 1207 q 516 1147 525 1175 q 489 1098 506 1119 q 449 1065 473 1077 q 392 1053 425 1053 q 346 1061 375 1053 q 287 1079 318 1069 q 230 1099 256 1090 q 191 1108 203 1108 q 146 1090 162 1108 q 130 1046 131 1073 l 59 1046 q 75 1105 64 1077 q 102 1154 85 1133 q 142 1187 118 1175 q 199 1200 166 1200 q 245 1191 216 1200 q 304 1171 273 1182 q 362 1153 335 1161 q 400 1145 389 1145 q 445 1162 429 1145 q 462 1207 460 1179 l 532 1207 "},"þ":{"x_min":58,"x_max":482,"ha":540,"o":"m 58 989 l 200 989 l 200 640 q 253 692 226 671 q 334 713 281 713 q 458 646 421 713 q 476 587 470 622 q 482 494 482 553 l 482 226 q 477 114 482 150 q 459 55 473 78 q 413 10 441 28 q 333 -8 384 -8 q 259 10 291 -8 q 203 64 226 29 l 199 64 l 200 -285 l 58 -285 l 58 989 m 340 475 q 323 544 340 518 q 270 571 306 571 q 219 546 238 571 q 200 483 200 522 l 200 210 q 220 155 200 177 q 270 134 240 134 q 325 158 310 134 q 340 217 340 183 l 340 475 "},"]":{"x_min":11.328125,"x_max":228,"ha":308,"o":"m 11 -56 l 103 -56 l 103 906 l 11 906 l 11 989 l 228 989 l 228 -139 l 11 -139 l 11 -56 "},"8":{"x_min":47,"x_max":470,"ha":517,"o":"m 328 785 q 307 834 328 814 q 258 855 286 855 q 209 834 230 855 q 189 785 189 814 l 189 641 q 209 592 189 612 q 258 572 230 572 q 307 592 286 572 q 328 641 328 612 l 328 785 m 47 730 q 49 799 47 770 q 58 848 52 827 q 74 885 65 869 q 98 920 84 902 q 168 976 126 956 q 258 997 209 997 q 348 976 307 997 q 418 920 390 956 q 442 885 432 902 q 458 848 451 869 q 467 799 464 827 q 470 730 470 770 q 468 655 470 686 q 460 601 467 624 q 438 559 453 577 q 399 519 424 540 q 438 480 424 500 q 460 434 453 461 q 468 370 467 408 q 470 276 470 332 q 467 200 470 230 q 461 148 465 171 q 449 111 457 126 q 431 79 442 96 q 364 17 407 43 q 258 -8 321 -8 q 152 17 195 -8 q 85 79 109 43 q 67 111 74 96 q 55 148 59 126 q 49 200 51 171 q 47 276 47 230 q 48 370 47 332 q 56 434 49 408 q 78 480 63 461 q 117 519 92 500 q 78 559 92 540 q 56 601 63 577 q 48 655 49 624 q 47 730 47 686 m 328 396 q 307 445 328 425 q 258 466 286 466 q 209 445 230 466 q 189 396 189 425 l 189 203 q 209 154 189 174 q 258 134 230 134 q 307 154 286 134 q 328 203 328 174 l 328 396 "},"R":{"x_min":67,"x_max":575.5625,"ha":592,"o":"m 209 547 l 289 547 q 348 557 326 547 q 382 587 371 567 q 398 635 394 606 q 403 701 403 663 q 398 767 403 739 q 381 816 394 796 q 344 846 368 836 q 282 856 321 856 l 209 856 l 209 547 m 67 989 l 294 989 q 545 698 545 989 q 517 550 545 612 q 422 451 490 488 l 575 0 l 425 0 l 293 422 l 209 422 l 209 0 l 67 0 l 67 989 "},"o":{"x_min":46,"x_max":468,"ha":514,"o":"m 46 468 q 51 547 46 511 q 72 611 57 583 q 144 685 97 657 q 257 713 191 713 q 369 685 322 713 q 441 611 416 657 q 462 547 456 583 q 468 468 468 511 l 468 236 q 462 157 468 193 q 441 93 456 121 q 369 19 416 47 q 257 -8 322 -8 q 144 19 191 -8 q 72 93 97 47 q 51 157 57 121 q 46 236 46 193 l 46 468 m 188 214 q 206 154 188 174 q 257 134 225 134 q 307 154 288 134 q 326 214 326 174 l 326 490 q 307 550 326 530 q 257 571 288 571 q 206 550 225 571 q 188 490 188 530 l 188 214 "},"5":{"x_min":47.3125,"x_max":470,"ha":517,"o":"m 470 856 l 189 856 l 189 589 q 239 621 208 608 q 307 635 269 635 q 424 590 379 635 q 470 460 470 546 l 470 204 q 452 115 470 154 q 406 48 435 76 q 338 6 376 21 q 258 -8 300 -8 q 178 6 216 -8 q 111 49 140 21 q 64 115 82 76 q 47 204 47 154 l 47 246 l 189 246 l 189 210 q 209 154 189 174 q 261 134 229 134 q 310 153 293 134 q 328 207 328 172 l 328 439 q 309 489 328 468 q 261 510 290 510 q 230 503 243 510 q 209 489 218 497 q 196 471 201 480 q 189 455 191 461 l 64 455 l 64 989 l 470 989 l 470 856 "},"õ":{"x_min":21,"x_max":493,"ha":514,"o":"m 46 468 q 51 547 46 511 q 72 611 57 583 q 144 685 97 657 q 257 713 191 713 q 369 685 322 713 q 441 611 416 657 q 462 547 456 583 q 468 468 468 511 l 468 236 q 462 157 468 193 q 441 93 456 121 q 369 19 416 47 q 257 -8 322 -8 q 144 19 191 -8 q 72 93 97 47 q 51 157 57 121 q 46 236 46 193 l 46 468 m 188 214 q 206 154 188 174 q 257 134 225 134 q 307 154 288 134 q 326 214 326 174 l 326 490 q 307 550 326 530 q 257 571 288 571 q 206 550 225 571 q 188 490 188 530 l 188 214 m 493 971 q 476 911 486 939 q 449 862 466 883 q 409 829 433 841 q 352 817 386 817 q 307 825 336 817 q 248 843 279 833 q 191 863 218 854 q 153 872 165 872 q 108 854 123 872 q 92 810 93 837 l 21 810 q 36 869 26 841 q 64 918 47 897 q 104 951 80 939 q 161 964 127 964 q 206 955 177 964 q 265 935 234 946 q 322 917 295 925 q 360 909 349 909 q 405 926 390 909 q 422 971 420 943 l 493 971 "},",":{"x_min":58,"x_max":200,"ha":258,"o":"m 58 142 l 200 142 l 200 0 l 58 -102 l 58 142 "},"d":{"x_min":58,"x_max":482,"ha":540,"o":"m 200 229 q 216 160 200 186 q 269 134 233 134 q 320 158 301 134 q 340 221 340 182 l 340 494 q 319 549 340 528 q 269 571 299 571 q 214 546 229 571 q 200 487 200 521 l 200 229 m 340 64 q 313 35 326 49 q 286 12 301 22 q 251 -2 270 3 q 206 -8 232 -8 q 81 58 118 -8 q 63 117 69 82 q 58 210 58 151 l 58 478 q 62 590 58 554 q 80 649 66 626 q 126 694 98 676 q 207 713 155 713 q 280 694 248 713 q 337 640 313 675 l 340 640 l 340 989 l 482 989 l 482 0 l 340 0 l 340 64 "},"\"":{"x_min":46,"x_max":340,"ha":386,"o":"m 46 989 l 157 989 l 157 745 l 46 745 l 46 989 m 229 989 l 340 989 l 340 745 l 229 745 l 229 989 "},"˙":{"x_min":67,"x_max":192,"ha":258,"o":"m 67 956 l 192 956 l 192 814 l 67 814 l 67 956 "},"ê":{"x_min":46,"x_max":468,"ha":514,"o":"m 188 299 l 188 203 q 206 152 188 170 q 257 134 225 134 q 310 157 297 134 q 326 205 323 181 l 468 205 q 453 121 468 160 q 411 54 438 82 q 344 8 383 25 q 257 -8 305 -8 q 144 19 191 -8 q 72 93 97 47 q 51 157 57 121 q 46 236 46 193 l 46 468 q 51 547 46 511 q 72 611 57 583 q 144 685 97 657 q 257 713 191 713 q 345 696 305 713 q 411 649 384 679 q 453 579 438 619 q 468 493 468 539 l 468 299 l 188 299 m 188 410 l 326 410 l 326 490 q 307 550 326 530 q 257 571 288 571 q 206 550 225 571 q 188 490 188 530 l 188 410 m 192 993 l 322 993 l 458 797 l 349 797 l 257 929 l 164 797 l 56 797 l 192 993 "},"„":{"x_min":25,"x_max":361,"ha":386,"o":"m 25 142 l 167 142 l 167 0 l 25 -102 l 25 142 m 219 142 l 361 142 l 361 0 l 219 -102 l 219 142 "},"Â":{"x_min":2.78125,"x_max":562.546875,"ha":565,"o":"m 283 704 l 280 704 l 211 346 l 352 346 l 283 704 m 223 989 l 341 989 l 562 0 l 420 0 l 379 213 l 186 213 l 144 0 l 2 0 l 223 989 m 218 1229 l 348 1229 l 484 1033 l 376 1033 l 283 1164 l 190 1033 l 81 1033 l 218 1229 "},"Í":{"x_min":51.390625,"x_max":326.421875,"ha":283,"o":"m 71 989 l 213 989 l 213 0 l 71 0 l 71 989 m 176 1229 l 326 1229 l 143 1033 l 51 1033 l 176 1229 "},"´":{"x_min":39,"x_max":314,"ha":258,"o":"m 164 993 l 314 993 l 130 797 l 39 797 l 164 993 "},"Ú":{"x_min":67,"x_max":525,"ha":592,"o":"m 525 222 q 506 132 525 173 q 457 59 488 90 q 384 10 426 28 q 296 -8 343 -8 q 207 10 248 -8 q 134 59 165 28 q 85 132 103 90 q 67 222 67 173 l 67 989 l 209 989 l 209 236 q 233 158 209 183 q 296 134 258 134 q 358 158 333 134 q 383 236 383 183 l 383 989 l 525 989 l 525 222 m 330 1229 l 480 1229 l 297 1033 l 206 1033 l 330 1229 "},"Ý":{"x_min":3.546875,"x_max":534.453125,"ha":539,"o":"m 198 418 l 3 989 l 153 989 l 267 595 l 270 595 l 384 989 l 534 989 l 340 418 l 340 0 l 198 0 l 198 418 m 304 1229 l 454 1229 l 270 1033 l 179 1033 l 304 1229 "},"Ω":{"x_min":31,"x_max":596,"ha":632,"o":"m 152 128 q 77 304 109 198 q 46 540 46 410 q 65 717 46 636 q 120 857 84 798 q 207 950 157 916 q 320 985 258 985 q 438 946 388 985 q 519 846 487 908 q 566 707 551 785 q 582 554 582 630 q 572 425 582 487 q 548 307 563 362 q 513 206 533 251 q 473 128 494 161 l 473 124 l 596 124 l 596 0 l 357 0 l 357 87 q 418 241 391 131 q 446 515 446 351 q 439 640 446 579 q 416 748 432 701 q 376 824 401 796 q 316 853 351 853 q 258 827 283 853 q 215 757 232 802 q 190 648 199 711 q 181 511 181 586 q 188 368 181 436 q 208 245 196 301 q 237 150 221 190 q 270 87 253 109 l 270 0 l 31 0 l 31 124 l 152 124 l 152 128 "},"Ö":{"x_min":58,"x_max":534,"ha":592,"o":"m 58 755 q 78 860 58 815 q 133 936 99 906 q 210 981 167 966 q 296 997 252 997 q 381 981 339 997 q 458 936 424 966 q 513 860 492 906 q 534 755 534 815 l 534 233 q 513 127 534 172 q 458 52 492 82 q 381 7 424 22 q 296 -8 339 -8 q 210 7 252 -8 q 133 52 167 22 q 78 127 99 82 q 58 233 58 172 l 58 755 m 200 233 q 228 158 200 182 q 296 134 257 134 q 363 158 334 134 q 392 233 392 182 l 392 755 q 363 830 392 806 q 296 855 334 855 q 228 830 257 855 q 200 755 200 806 l 200 233 m 121 1192 l 246 1192 l 246 1050 l 121 1050 l 121 1192 m 346 1192 l 471 1192 l 471 1050 l 346 1050 l 346 1192 "},"z":{"x_min":24,"x_max":414,"ha":438,"o":"m 24 112 l 253 579 l 42 579 l 42 704 l 414 704 l 414 591 l 184 133 l 414 133 l 414 0 l 24 0 l 24 112 "},"™":{"x_min":54.59375,"x_max":1218,"ha":1375,"o":"m 231 897 l 54 897 l 54 989 l 507 989 l 507 897 l 331 897 l 331 416 l 231 416 l 231 897 m 1118 897 l 1115 897 l 924 416 l 867 416 l 678 897 l 676 897 l 676 416 l 576 416 l 576 989 l 734 989 l 897 570 l 1059 989 l 1218 989 l 1218 416 l 1118 416 l 1118 897 "},"ã":{"x_min":21,"x_max":493,"ha":514,"o":"m 326 72 l 323 72 q 267 12 295 33 q 187 -8 238 -8 q 136 0 162 -8 q 87 27 109 7 q 49 84 64 47 q 35 179 35 121 q 44 284 35 239 q 80 359 54 329 q 148 403 105 388 q 258 418 191 418 q 288 416 273 418 q 326 414 303 415 l 326 487 q 310 547 326 523 q 255 571 295 571 q 205 552 228 571 q 176 500 182 534 l 38 500 q 101 653 44 596 q 168 696 129 680 q 255 713 207 713 q 339 699 300 713 q 406 657 377 685 q 451 587 434 629 q 468 490 468 546 l 468 0 l 326 0 l 326 72 m 326 302 q 287 307 302 307 q 209 285 241 307 q 177 207 177 264 q 196 141 177 166 q 250 117 215 117 q 305 140 285 117 q 326 207 326 164 l 326 302 m 493 971 q 476 911 486 939 q 449 862 466 883 q 409 829 433 841 q 352 817 386 817 q 307 825 336 817 q 248 843 279 833 q 191 863 218 854 q 153 872 165 872 q 108 854 123 872 q 92 810 93 837 l 21 810 q 36 869 26 841 q 64 918 47 897 q 104 951 80 939 q 161 964 127 964 q 206 955 177 964 q 265 935 234 946 q 322 917 295 925 q 360 909 349 909 q 405 926 390 909 q 422 971 420 943 l 493 971 "},"æ":{"x_min":35,"x_max":749,"ha":795,"o":"m 468 410 l 607 410 l 607 490 q 588 550 607 530 q 537 571 569 571 q 486 550 505 571 q 468 490 468 530 l 468 410 m 749 299 l 468 299 l 468 203 q 486 152 468 170 q 537 134 505 134 q 591 157 577 134 q 607 205 604 181 l 749 205 q 733 120 749 159 q 689 53 718 81 q 622 8 661 25 q 537 -8 583 -8 q 419 21 466 -9 q 352 92 373 51 q 283 17 327 42 q 187 -8 240 -8 q 136 0 162 -8 q 86 27 109 7 q 49 84 64 47 q 35 179 35 121 q 44 284 35 239 q 80 359 54 329 q 148 403 105 388 q 258 418 191 418 q 288 416 273 418 q 326 414 303 415 l 326 487 q 310 547 326 523 q 255 571 295 571 q 205 552 228 571 q 176 500 182 534 l 38 500 q 57 586 40 547 q 101 653 74 625 q 168 696 129 680 q 256 713 207 713 q 334 699 300 713 q 396 662 368 686 q 460 699 422 686 q 537 713 497 713 q 626 696 586 713 q 692 649 665 679 q 734 579 719 619 q 749 493 749 539 l 749 299 m 326 302 q 287 307 302 307 q 209 285 241 307 q 177 207 177 264 q 196 141 177 166 q 250 117 215 117 q 305 140 285 117 q 326 207 326 164 l 326 302 "},"É":{"x_min":67,"x_max":489.578125,"ha":514,"o":"m 67 989 l 489 989 l 489 856 l 209 856 l 209 565 l 453 565 l 453 432 l 209 432 l 209 142 l 489 142 l 489 0 l 67 0 l 67 989 m 306 1229 l 456 1229 l 272 1033 l 181 1033 l 306 1229 "},"~":{"x_min":96,"x_max":738,"ha":833,"o":"m 738 367 q 710 324 726 345 q 674 285 694 302 q 626 257 653 267 q 564 247 599 247 q 489 260 528 247 q 410 292 450 273 q 333 326 371 309 q 268 343 296 343 q 230 333 247 343 q 198 311 212 324 q 171 279 183 297 q 146 244 158 262 l 96 333 q 123 376 107 355 q 159 415 139 398 q 207 443 180 433 q 269 454 234 454 q 344 440 305 454 q 423 408 383 427 q 500 374 462 391 q 565 358 537 358 q 603 367 586 358 q 635 389 621 376 q 662 421 650 403 q 687 458 675 439 l 738 367 "},"³":{"x_min":15,"x_max":321,"ha":336,"o":"m 139 750 q 194 759 179 750 q 210 797 208 768 l 210 855 q 198 885 210 873 q 168 897 187 897 q 135 882 145 897 q 126 855 126 867 l 126 819 l 15 819 l 15 863 q 58 959 15 921 q 170 997 101 997 q 237 985 209 997 q 284 953 265 973 q 311 908 302 933 q 321 858 321 883 l 321 801 q 311 748 321 771 q 264 706 301 725 q 309 662 297 686 q 321 604 321 639 l 321 533 q 312 482 321 508 q 285 437 304 456 q 237 405 266 418 q 168 393 208 393 q 112 399 140 393 q 62 422 84 406 q 28 462 41 437 q 15 523 15 487 l 15 571 l 126 571 l 126 538 q 137 505 126 518 q 168 493 148 493 q 198 506 186 493 q 210 534 210 519 l 210 606 q 196 648 210 638 q 139 658 182 658 l 139 750 "},"¡":{"x_min":77.78125,"x_max":255.578125,"ha":333,"o":"m 131 459 l 201 459 l 255 -285 l 77 -285 l 131 459 m 96 704 l 238 704 l 238 562 l 96 562 l 96 704 "},"[":{"x_min":81,"x_max":297.671875,"ha":308,"o":"m 297 906 l 206 906 l 206 -56 l 297 -56 l 297 -139 l 81 -139 l 81 989 l 297 989 l 297 906 "},"%":{"x_min":13,"x_max":476,"ha":489,"o":"m 130 771 q 154 781 144 771 q 165 807 165 791 l 165 877 q 154 903 165 893 q 130 914 144 914 q 106 903 116 914 q 96 877 96 893 l 96 807 q 106 781 96 791 q 130 771 116 771 m 130 688 q 44 717 76 688 q 13 793 13 746 l 13 883 q 44 966 13 936 q 130 997 76 997 q 216 966 184 997 q 248 883 248 936 l 248 793 q 216 717 248 746 q 130 688 184 688 m 323 111 q 333 85 323 95 q 358 75 344 75 q 382 85 372 75 q 393 111 393 95 l 393 181 q 382 207 393 197 q 358 218 372 218 q 333 207 344 218 q 323 181 323 197 l 323 111 m 358 -8 q 271 21 303 -8 q 240 97 240 50 l 240 187 q 271 270 240 240 q 358 301 303 301 q 444 270 412 301 q 476 187 476 240 l 476 97 q 444 21 476 50 q 358 -8 412 -8 m 367 989 l 459 988 l 121 0 l 29 0 l 367 989 "},"P":{"x_min":67,"x_max":526,"ha":565,"o":"m 67 989 l 279 989 q 381 973 337 989 q 462 919 426 958 q 512 828 498 880 q 526 687 526 776 q 518 575 526 622 q 485 488 510 529 q 408 413 456 440 q 280 386 359 386 l 209 386 l 209 0 l 67 0 l 67 989 m 209 519 l 276 519 q 343 531 319 519 q 377 565 366 544 q 390 617 388 587 q 393 686 393 648 q 390 752 393 720 q 378 806 388 783 q 345 842 368 829 q 282 856 323 856 l 209 856 l 209 519 "},"∏":{"x_min":32.109375,"x_max":679.890625,"ha":713,"o":"m 591 832 l 591 -134 l 456 -134 l 456 832 l 256 832 l 256 -134 l 121 -134 l 121 832 l 32 832 l 32 971 l 679 971 l 679 832 l 591 832 "},"_":{"x_min":0,"x_max":694.5,"ha":695,"o":"m 0 -104 l 694 -104 l 694 -173 l 0 -173 l 0 -104 "},"ñ":{"x_min":34.578125,"x_max":507,"ha":540,"o":"m 58 704 l 200 704 l 200 636 l 202 636 q 256 691 224 669 q 336 713 287 713 q 388 703 362 713 q 436 674 415 694 q 469 620 456 653 q 482 540 482 587 l 482 0 l 340 0 l 340 487 q 321 548 340 526 q 270 571 303 571 q 215 545 230 571 q 200 473 200 520 l 200 0 l 58 0 l 58 704 m 507 971 q 490 911 500 939 q 463 862 480 883 q 423 829 447 841 q 366 817 399 817 q 321 825 349 817 q 262 843 292 833 q 205 863 231 854 q 166 872 179 872 q 122 854 137 872 q 105 810 106 837 l 34 810 q 50 869 40 841 q 77 918 60 897 q 117 951 94 939 q 174 964 141 964 q 220 955 191 964 q 279 935 248 946 q 336 917 309 925 q 374 909 363 909 q 419 926 404 909 q 436 971 434 943 l 507 971 "},"‚":{"x_min":58,"x_max":200,"ha":258,"o":"m 58 142 l 200 142 l 200 0 l 58 -102 l 58 142 "},"Æ":{"x_min":2.359375,"x_max":823.578125,"ha":849,"o":"m 282 989 l 823 989 l 823 856 l 543 856 l 543 565 l 787 565 l 787 432 l 543 432 l 543 142 l 823 142 l 823 0 l 401 0 l 401 213 l 206 213 l 152 0 l 2 0 l 282 989 m 401 856 l 367 856 l 239 346 l 401 346 l 401 856 "},"ğ":{"x_min":55,"x_max":483,"ha":540,"o":"m 200 -82 q 220 -128 201 -106 q 274 -151 238 -151 q 324 -129 309 -151 q 340 -74 340 -107 l 340 64 l 337 64 q 281 10 313 29 q 206 -8 248 -8 q 81 58 118 -8 q 63 117 69 82 q 58 210 58 151 l 58 478 q 62 590 58 554 q 80 649 66 626 q 126 694 98 676 q 207 713 155 713 q 252 707 233 713 q 285 692 270 701 q 313 669 301 682 q 340 640 326 655 l 340 704 l 482 704 l 482 -86 q 470 -159 482 -122 q 431 -225 458 -195 q 365 -274 405 -255 q 269 -293 324 -293 q 202 -282 237 -293 q 137 -247 167 -272 q 86 -183 108 -223 q 58 -82 64 -143 l 200 -82 m 200 217 q 214 158 200 183 q 269 134 229 134 q 319 155 299 134 q 340 210 340 177 l 340 483 q 320 546 340 522 q 269 571 301 571 q 216 544 233 571 q 200 475 200 518 l 200 217 m 483 993 q 269 804 453 804 q 55 993 84 804 l 125 993 q 136 954 128 973 q 160 920 143 936 q 203 896 177 905 q 269 887 230 887 q 334 896 307 887 q 377 920 360 905 q 401 954 394 936 q 412 993 409 973 l 483 993 "},"ª":{"x_min":19,"x_max":314,"ha":333,"o":"m 214 612 l 211 612 q 174 576 192 589 q 123 564 156 564 q 88 568 106 564 q 55 584 70 572 q 29 619 39 597 q 19 677 19 641 q 51 787 19 750 q 169 825 83 825 q 188 824 179 825 q 214 822 198 823 l 214 855 q 203 890 214 875 q 167 905 193 905 q 134 896 149 905 q 116 864 118 887 l 25 864 q 66 960 29 924 q 168 997 106 997 q 223 988 197 997 q 270 963 250 980 q 302 922 290 947 q 314 863 314 897 l 314 570 l 214 570 l 214 612 m 214 751 q 200 753 207 752 q 188 754 194 754 q 138 740 158 754 q 119 693 119 727 q 163 653 119 653 q 200 666 187 653 q 214 700 214 680 l 214 751 "},"Œ":{"x_min":67,"x_max":822.578125,"ha":847,"o":"m 400 769 q 374 841 400 810 q 304 872 348 872 q 234 841 260 872 q 209 769 209 810 l 209 219 q 234 147 209 178 q 304 117 260 117 q 374 147 348 117 q 400 219 400 178 l 400 769 m 822 856 l 542 856 l 542 565 l 786 565 l 786 432 l 542 432 l 542 142 l 822 142 l 822 0 l 400 0 l 400 47 l 397 47 q 346 7 378 23 q 279 -8 313 -8 q 189 10 229 -8 q 123 62 150 29 q 81 137 96 94 q 67 226 67 179 l 67 762 q 81 851 67 809 q 123 926 96 894 q 189 977 150 958 q 279 997 229 997 q 353 979 325 997 q 397 938 381 962 l 400 938 l 400 989 l 822 989 l 822 856 "},"T":{"x_min":-3.90625,"x_max":465.90625,"ha":461,"o":"m 160 856 l -3 856 l -3 989 l 465 989 l 465 856 l 302 856 l 302 0 l 160 0 l 160 856 "},"š":{"x_min":34,"x_max":455,"ha":488,"o":"m 315 507 q 292 561 313 543 q 243 580 270 580 q 191 558 209 580 q 174 509 174 536 q 183 470 174 489 q 233 436 193 452 l 316 403 q 425 320 395 372 q 455 204 455 267 q 439 121 455 160 q 395 54 423 83 q 328 8 367 25 q 244 -8 290 -8 q 165 5 202 -8 q 99 46 128 19 q 53 112 71 72 q 34 205 35 152 l 167 205 q 187 150 171 175 q 243 125 202 125 q 297 145 273 125 q 322 201 322 165 q 306 251 322 230 q 251 287 291 272 l 183 312 q 79 387 117 337 q 41 507 41 436 q 57 589 41 551 q 102 655 74 628 q 168 697 130 682 q 248 713 205 713 q 328 696 291 713 q 391 653 364 680 q 432 588 417 626 q 448 507 448 550 l 315 507 m 309 797 l 179 797 l 43 993 l 151 993 l 244 861 l 337 993 l 445 993 l 309 797 "},"Þ":{"x_min":67,"x_max":526,"ha":565,"o":"m 67 989 l 209 989 l 209 817 l 279 817 q 382 801 337 817 q 462 747 426 786 q 512 656 498 708 q 526 515 526 604 q 518 403 526 450 q 485 316 510 357 q 408 241 456 268 q 280 214 359 214 l 209 214 l 209 0 l 67 0 l 67 989 m 209 347 l 276 347 q 343 359 319 347 q 377 393 366 372 q 390 445 388 415 q 393 514 393 476 q 390 580 393 548 q 378 634 388 611 q 345 670 368 657 q 282 684 323 684 l 209 684 l 209 347 "},"j":{"x_min":-30.90625,"x_max":200,"ha":258,"o":"m 58 704 l 200 704 l 200 -75 q 134 -232 200 -179 q -30 -285 69 -285 l -30 -152 q 11 -146 -5 -152 q 39 -126 28 -140 q 53 -86 49 -111 q 58 -22 58 -61 l 58 704 m 58 989 l 200 989 l 200 847 l 58 847 l 58 989 "},"1":{"x_min":73.3125,"x_max":357,"ha":517,"o":"m 215 838 l 73 734 l 73 884 l 215 989 l 357 989 l 357 0 l 215 0 l 215 838 "},"›":{"x_min":39,"x_max":321,"ha":335,"o":"m 39 245 l 179 384 l 39 523 l 39 665 l 321 384 l 39 104 l 39 245 "},"ℓ":{"x_min":22.265625,"x_max":483.25,"ha":498,"o":"m 483 158 q 399 34 448 72 q 291 -3 349 -3 q 202 17 237 -3 q 145 70 166 37 q 115 148 123 103 q 107 242 107 192 l 107 263 q 80 236 94 251 q 52 208 66 222 l 22 285 q 67 334 47 312 q 107 383 87 356 l 107 751 q 121 897 107 836 q 161 997 136 958 q 219 1056 186 1037 q 289 1075 252 1075 q 385 1012 354 1075 q 417 844 417 950 q 368 607 417 726 q 236 376 319 489 l 236 293 q 257 151 236 193 q 319 110 279 110 q 383 143 355 110 q 431 215 411 176 l 483 158 m 236 519 q 315 689 284 601 q 346 857 346 777 q 334 938 346 912 q 294 964 322 964 q 272 952 283 964 q 254 913 262 941 q 240 839 245 886 q 236 723 236 793 l 236 519 "},"<":{"x_min":65.28125,"x_max":768.109375,"ha":833,"o":"m 768 602 l 216 351 l 768 100 l 768 -11 l 65 309 l 65 393 l 768 714 l 768 602 "},"t":{"x_min":-12.84375,"x_max":287.5,"ha":283,"o":"m 58 917 l 200 917 l 200 704 l 287 704 l 287 593 l 200 593 l 200 202 q 204 163 200 177 q 220 142 209 149 q 247 134 230 135 q 287 133 263 133 l 287 0 l 229 0 q 147 15 180 0 q 95 54 115 30 q 67 107 76 77 q 58 165 58 137 l 58 593 l -12 593 l -12 704 l 58 704 l 58 917 "},"¬":{"x_min":65.28125,"x_max":768,"ha":833,"o":"m 657 435 l 65 435 l 65 546 l 768 546 l 768 157 l 657 157 l 657 435 "},"ù":{"x_min":58,"x_max":482,"ha":540,"o":"m 482 0 l 340 0 l 340 68 l 337 68 q 283 13 314 35 q 204 -8 252 -8 q 151 1 177 -8 q 103 30 124 10 q 70 84 83 51 q 58 164 58 116 l 58 704 l 200 704 l 200 217 q 218 156 200 178 q 269 134 236 134 q 324 158 309 134 q 340 231 340 183 l 340 704 l 482 704 l 482 0 m 360 797 l 269 797 l 85 993 l 235 993 l 360 797 "},"ï":{"x_min":-46,"x_max":304,"ha":258,"o":"m 58 704 l 200 704 l 200 0 l 58 0 l 58 704 m -46 956 l 79 956 l 79 814 l -46 814 l -46 956 m 179 956 l 304 956 l 304 814 l 179 814 l 179 956 "},"Ò":{"x_min":58,"x_max":534,"ha":592,"o":"m 58 755 q 78 860 58 815 q 133 936 99 906 q 210 981 167 966 q 296 997 252 997 q 381 981 339 997 q 458 936 424 966 q 513 860 492 906 q 534 755 534 815 l 534 233 q 513 127 534 172 q 458 52 492 82 q 381 7 424 22 q 296 -8 339 -8 q 210 7 252 -8 q 133 52 167 22 q 78 127 99 82 q 58 233 58 172 l 58 755 m 200 233 q 228 158 200 182 q 296 134 257 134 q 363 158 334 134 q 392 233 392 182 l 392 755 q 363 830 392 806 q 296 855 334 855 q 228 830 257 855 q 200 755 200 806 l 200 233 m 386 1033 l 294 1033 l 110 1229 l 260 1229 l 386 1033 "},"&":{"x_min":50,"x_max":632.375,"ha":668,"o":"m 443 75 q 356 12 401 33 q 254 -8 311 -8 q 175 8 212 -8 q 109 55 137 25 q 65 127 81 85 q 50 221 50 169 q 88 363 50 302 q 186 477 127 425 q 124 586 148 530 q 100 705 100 642 q 112 779 100 744 q 148 840 125 815 q 208 881 172 866 q 293 897 244 897 q 373 882 339 897 q 432 843 408 867 q 468 786 455 819 q 481 717 481 753 q 437 585 481 648 q 336 469 394 522 q 396 372 362 429 q 467 262 430 315 l 543 366 l 630 305 l 525 169 l 632 0 l 490 0 l 443 75 m 175 228 q 204 139 175 176 q 280 103 234 103 q 341 123 312 103 q 386 162 370 143 l 250 379 q 196 310 218 347 q 175 228 175 273 m 225 702 q 240 633 225 670 q 279 559 255 597 q 307 588 291 572 q 334 623 322 604 q 355 665 347 642 q 364 715 364 688 q 345 763 364 741 q 295 786 327 786 q 244 760 263 786 q 225 702 225 734 "},"˝":{"x_min":-75,"x_max":425,"ha":258,"o":"m 50 993 l 200 993 l 16 797 l -75 797 l 50 993 m 275 993 l 425 993 l 241 797 l 150 797 l 275 993 "},"I":{"x_min":71,"x_max":213,"ha":283,"o":"m 71 989 l 213 989 l 213 0 l 71 0 l 71 989 "},"G":{"x_min":58,"x_max":534,"ha":592,"o":"m 58 755 q 78 860 58 815 q 133 936 99 906 q 210 981 167 966 q 296 997 252 997 q 381 981 339 997 q 458 936 424 966 q 513 860 492 906 q 534 754 534 814 l 534 704 l 392 704 l 392 754 q 363 830 392 806 q 296 855 334 855 q 228 830 257 855 q 200 755 200 806 l 200 233 q 228 158 200 182 q 296 134 257 134 q 363 158 334 134 q 392 233 392 182 l 392 419 l 279 419 l 279 544 l 534 544 l 534 233 q 513 127 534 172 q 458 52 492 82 q 381 7 424 22 q 296 -8 339 -8 q 210 7 252 -8 q 133 52 167 22 q 78 127 99 82 q 58 233 58 172 l 58 755 "},"`":{"x_min":-56,"x_max":219,"ha":258,"o":"m 219 797 l 127 797 l -56 993 l 94 993 l 219 797 "},"·":{"x_min":40,"x_max":218,"ha":258,"o":"m 40 414 q 66 476 40 450 q 129 503 92 503 q 191 476 165 503 q 218 414 218 450 q 191 351 218 377 q 129 325 165 325 q 66 351 92 325 q 40 414 40 377 "},"¿":{"x_min":44,"x_max":470,"ha":514,"o":"m 470 -81 q 453 -164 470 -126 q 407 -231 436 -202 q 339 -276 378 -259 q 255 -293 300 -293 q 161 -272 204 -293 q 91 -213 119 -251 q 68 -178 77 -195 q 53 -141 59 -160 q 46 -99 48 -123 q 44 -44 44 -75 q 44 15 44 -9 q 48 58 45 40 q 55 89 50 76 q 66 114 59 103 l 162 278 q 179 312 172 294 q 186 349 186 329 l 186 460 l 328 460 l 328 330 q 318 272 328 300 q 293 218 308 244 l 204 74 q 189 35 192 55 q 186 -6 186 14 l 186 -80 q 206 -130 186 -109 q 255 -151 226 -151 q 304 -132 280 -151 q 328 -80 328 -114 l 328 0 l 470 0 l 470 -81 m 328 562 l 186 562 l 186 704 l 328 704 l 328 562 "},"ý":{"x_min":-1.390625,"x_max":490.3125,"ha":489,"o":"m 148 704 l 245 265 l 248 265 l 344 704 l 490 704 l 287 -122 q 256 -200 276 -169 q 209 -250 236 -232 q 153 -277 183 -269 q 91 -285 123 -285 l 52 -285 l 52 -152 l 84 -152 q 120 -146 105 -152 q 147 -122 136 -140 q 169 -66 159 -103 q 191 31 179 -29 l -1 704 l 148 704 m 279 993 l 429 993 l 245 797 l 154 797 l 279 993 "},"º":{"x_min":25,"x_max":308,"ha":333,"o":"m 25 859 q 63 958 25 919 q 166 997 101 997 q 269 958 231 997 q 308 859 308 919 l 308 701 q 269 602 308 641 q 166 564 231 564 q 63 602 101 564 q 25 701 25 641 l 25 859 m 125 703 q 166 656 125 656 q 208 703 208 656 l 208 856 q 166 905 208 905 q 125 856 125 905 l 125 703 "},"∞":{"x_min":53,"x_max":829,"ha":882,"o":"m 829 401 q 813 316 829 353 q 772 254 798 280 q 713 214 747 228 q 645 201 680 201 q 547 226 594 201 q 444 328 500 252 q 350 237 400 273 q 232 201 301 201 q 164 214 195 201 q 107 254 132 228 q 67 316 82 280 q 53 396 53 352 q 66 475 53 438 q 105 538 80 512 q 165 579 130 564 q 241 594 200 594 q 352 559 305 594 q 444 467 400 525 q 482 509 462 487 q 527 550 502 531 q 581 581 551 569 q 651 594 612 594 q 721 580 688 594 q 777 541 754 566 q 815 480 801 516 q 829 402 829 445 l 829 401 m 244 280 q 328 314 291 280 q 400 392 364 348 q 364 438 382 416 q 328 477 347 461 q 288 504 310 494 q 239 515 266 515 q 161 480 187 515 q 135 394 135 445 q 166 312 135 345 q 243 280 198 280 l 244 280 m 642 515 q 594 502 616 515 q 551 472 571 490 q 515 435 531 455 q 485 400 499 415 q 531 344 510 367 q 569 307 551 321 q 606 286 587 292 q 648 280 624 280 q 690 291 672 280 q 720 319 708 302 q 740 356 733 335 q 747 396 747 376 q 719 481 747 448 q 644 515 691 515 l 642 515 "},";":{"x_min":58,"x_max":200,"ha":258,"o":"m 58 142 l 200 142 l 200 0 l 58 -102 l 58 142 m 58 457 l 200 457 l 200 315 l 58 315 l 58 457 "},"6":{"x_min":47,"x_max":470,"ha":517,"o":"m 257 573 l 259 570 q 281 579 266 576 q 320 583 296 583 q 389 564 357 583 q 439 519 421 546 q 454 488 449 503 q 463 448 460 473 q 468 385 467 423 q 470 288 470 347 q 468 209 470 240 q 463 156 467 177 q 454 119 460 134 q 438 87 447 104 q 363 16 410 41 q 258 -8 316 -8 q 154 17 200 -8 q 80 87 108 43 q 63 119 69 104 q 53 156 56 135 q 48 209 49 178 q 47 289 47 240 q 48 364 47 334 q 52 416 49 394 q 60 455 55 437 q 73 491 66 472 l 259 989 l 418 989 l 257 573 m 328 387 q 307 438 328 419 q 258 458 286 458 q 209 438 230 458 q 189 387 189 419 l 189 204 q 209 153 189 172 q 258 134 230 134 q 307 153 286 134 q 328 204 328 172 l 328 387 "},"n":{"x_min":58,"x_max":482,"ha":540,"o":"m 58 704 l 200 704 l 200 636 l 203 636 q 256 691 225 669 q 336 713 287 713 q 388 703 362 713 q 436 674 415 694 q 469 620 456 653 q 482 540 482 587 l 482 0 l 340 0 l 340 487 q 321 548 340 526 q 270 571 303 571 q 215 545 230 571 q 200 473 200 520 l 200 0 l 58 0 l 58 704 "},"¤":{"x_min":5,"x_max":512,"ha":517,"o":"m 63 355 q 28 415 41 379 q 15 494 15 452 q 27 573 15 536 q 62 633 40 609 l 5 692 l 62 749 l 119 690 q 179 724 142 711 q 258 738 216 738 q 337 725 300 738 q 399 690 374 712 l 456 749 l 512 692 l 454 635 q 489 573 477 609 q 502 494 502 536 q 488 415 502 451 q 454 355 475 379 l 512 298 l 454 241 l 397 298 q 337 263 374 276 q 258 251 300 251 q 179 264 216 251 q 119 299 142 277 l 62 241 l 5 296 l 63 355 m 107 494 q 118 435 107 462 q 151 387 130 408 q 199 354 172 366 q 258 343 226 343 q 316 354 289 343 q 365 387 344 366 q 398 435 386 408 q 410 494 410 462 q 398 552 410 525 q 365 601 386 580 q 316 634 344 622 q 258 646 289 646 q 199 634 226 646 q 151 601 172 622 q 118 552 130 580 q 107 494 107 525 "},"∂":{"x_min":44,"x_max":517,"ha":570,"o":"m 74 1036 q 141 1083 100 1059 q 248 1107 182 1107 q 346 1079 298 1107 q 432 989 394 1051 q 493 829 469 927 q 517 588 517 730 q 446 147 517 294 q 242 0 375 0 q 158 25 195 0 q 96 93 121 50 q 57 195 70 137 q 44 318 44 252 q 62 475 44 407 q 112 591 81 544 q 182 663 142 638 q 263 689 221 689 q 342 663 312 689 q 384 613 372 638 l 386 613 l 386 654 q 374 775 386 716 q 343 879 363 833 q 294 953 323 925 q 230 981 266 981 q 160 960 189 981 q 109 915 131 940 l 74 1036 m 257 129 q 305 158 284 129 q 341 237 326 188 q 365 347 355 285 q 378 473 375 409 q 346 535 369 505 q 285 565 323 565 q 240 543 260 565 q 206 485 220 521 q 184 403 192 449 q 177 308 177 356 q 197 177 177 226 q 255 129 217 129 l 257 129 "},"p":{"x_min":58,"x_max":482,"ha":540,"o":"m 58 704 l 200 704 l 200 640 q 253 692 226 671 q 334 713 281 713 q 458 646 421 713 q 476 587 470 622 q 482 494 482 553 l 482 226 q 477 114 482 150 q 459 55 473 78 q 413 10 441 28 q 333 -8 384 -8 q 259 10 291 -8 q 203 64 226 29 l 199 64 l 200 -285 l 58 -285 l 58 704 m 340 475 q 323 544 340 518 q 270 571 306 571 q 219 546 238 571 q 200 483 200 522 l 200 210 q 220 155 200 177 q 270 134 240 134 q 325 158 310 134 q 340 217 340 183 l 340 475 "},"‡":{"x_min":7.875,"x_max":505.125,"ha":514,"o":"m 194 989 l 319 989 l 319 686 l 505 686 l 505 575 l 319 575 l 319 129 l 505 129 l 505 18 l 319 18 l 319 -285 l 194 -285 l 194 18 l 7 18 l 7 129 l 194 129 l 194 575 l 7 575 l 7 686 l 194 686 l 194 989 "},"√":{"x_min":37.5,"x_max":601.4375,"ha":610,"o":"m 384 -190 l 276 -190 l 133 425 l 58 396 l 37 483 l 219 554 l 308 145 q 320 69 315 107 q 329 11 326 32 l 330 9 q 336 70 333 30 q 345 150 338 109 l 511 1169 l 601 1169 l 384 -190 "},"S":{"x_min":39,"x_max":525,"ha":564,"o":"m 525 703 l 383 703 l 383 735 q 360 819 383 784 q 283 855 337 855 q 235 843 254 855 q 206 815 217 832 q 192 775 196 798 q 188 727 188 752 q 190 678 188 698 q 200 643 192 657 q 224 617 208 628 q 268 595 240 606 l 376 552 q 452 510 423 534 q 497 453 482 485 q 519 378 513 420 q 525 281 525 336 q 512 166 525 219 q 471 74 500 112 q 395 14 443 36 q 280 -8 348 -8 q 184 10 229 -8 q 108 59 140 28 q 57 133 76 90 q 39 227 39 177 l 39 279 l 181 279 l 181 235 q 203 165 181 196 q 280 134 226 134 q 336 144 316 134 q 367 173 356 154 q 380 220 377 192 q 383 281 383 247 q 380 344 383 319 q 368 385 377 369 q 343 410 359 400 q 301 430 327 419 l 199 472 q 77 571 108 510 q 46 726 46 633 q 61 831 46 781 q 106 917 76 881 q 182 975 136 953 q 288 997 227 997 q 385 977 341 997 q 460 926 429 958 q 508 854 491 893 q 525 773 525 814 l 525 703 "},"/":{"x_min":7,"x_max":301,"ha":308,"o":"m 190 997 l 301 997 l 117 -8 l 7 -8 l 190 997 "},"y":{"x_min":-1.390625,"x_max":490.3125,"ha":489,"o":"m 148 704 l 245 265 l 248 265 l 344 704 l 490 704 l 287 -122 q 256 -200 276 -169 q 209 -250 236 -232 q 153 -277 183 -269 q 91 -285 123 -285 l 52 -285 l 52 -152 l 84 -152 q 120 -146 105 -152 q 147 -122 136 -140 q 169 -66 159 -103 q 191 31 179 -29 l -1 704 l 148 704 "},"≈":{"x_min":38.890625,"x_max":516.703125,"ha":557,"o":"m 516 546 q 461 456 497 494 q 376 419 425 419 q 324 429 348 419 q 265 463 300 439 q 220 493 238 482 q 177 505 201 505 q 125 477 144 505 q 90 418 106 450 l 38 459 q 97 549 59 513 q 186 586 136 586 q 252 569 226 586 q 297 542 279 553 q 342 513 322 526 q 381 501 362 501 q 429 526 411 501 q 465 587 447 551 l 516 546 m 516 336 q 461 245 497 283 q 376 208 425 208 q 324 218 348 208 q 265 252 300 229 q 220 283 238 272 q 177 295 201 295 q 125 267 144 295 q 90 208 105 240 l 38 247 q 97 338 59 303 q 186 374 136 374 q 252 358 226 374 q 297 332 279 343 q 343 302 323 315 q 381 289 362 289 q 429 314 411 289 q 465 376 447 340 l 516 336 "},"g":{"x_min":58,"x_max":482,"ha":540,"o":"m 200 -82 q 220 -128 201 -106 q 274 -151 238 -151 q 324 -129 309 -151 q 340 -74 340 -107 l 340 64 l 337 64 q 281 10 313 29 q 206 -8 248 -8 q 81 58 118 -8 q 63 117 69 82 q 58 210 58 151 l 58 478 q 62 590 58 554 q 80 649 66 626 q 126 694 98 676 q 207 713 155 713 q 252 707 233 713 q 285 692 270 701 q 313 669 301 682 q 340 640 326 655 l 340 704 l 482 704 l 482 -86 q 470 -159 482 -122 q 431 -225 458 -195 q 365 -274 405 -255 q 269 -293 324 -293 q 202 -282 237 -293 q 137 -247 167 -272 q 86 -183 108 -223 q 58 -82 64 -143 l 200 -82 m 200 216 q 214 158 200 183 q 269 133 229 133 q 319 155 299 133 q 340 209 340 176 l 340 483 q 320 546 340 522 q 269 571 301 571 q 216 544 233 571 q 200 475 200 518 l 200 216 "},"²":{"x_min":15,"x_max":321,"ha":336,"o":"m 15 860 q 26 915 15 890 q 59 958 38 940 q 108 986 80 976 q 168 997 136 997 q 226 987 198 997 q 275 960 254 977 q 308 921 295 944 q 321 870 321 898 l 321 824 q 312 766 321 788 q 289 720 304 744 l 156 499 l 321 499 l 321 399 l 15 399 l 15 473 l 193 767 q 205 793 200 780 q 210 822 210 806 l 210 854 q 196 885 210 874 q 166 897 182 897 q 138 885 151 897 q 126 854 126 874 l 126 811 l 15 811 l 15 860 "},"ë":{"x_min":46,"x_max":468,"ha":514,"o":"m 188 299 l 188 203 q 206 152 188 170 q 257 134 225 134 q 310 157 297 134 q 326 205 323 181 l 468 205 q 453 121 468 160 q 411 54 438 82 q 344 8 383 25 q 257 -8 305 -8 q 144 19 191 -8 q 72 93 97 47 q 51 157 57 121 q 46 236 46 193 l 46 468 q 51 547 46 511 q 72 611 57 583 q 144 685 97 657 q 257 713 191 713 q 345 696 305 713 q 411 649 384 679 q 453 579 438 619 q 468 493 468 539 l 468 299 l 188 299 m 188 410 l 326 410 l 326 490 q 307 550 326 530 q 257 571 288 571 q 206 550 225 571 q 188 490 188 530 l 188 410 m 81 956 l 206 956 l 206 814 l 81 814 l 81 956 m 307 956 l 432 956 l 432 814 l 307 814 l 307 956 "},"–":{"x_min":0,"x_max":694.5,"ha":695,"o":"m 0 451 l 694 451 l 694 318 l 0 318 l 0 451 "},"ƒ":{"x_min":-83.34375,"x_max":508.375,"ha":517,"o":"m 77 626 l 194 626 l 226 803 q 256 901 237 863 q 300 960 275 938 q 355 989 325 981 q 419 997 386 997 q 459 995 438 997 q 508 992 480 994 l 488 863 q 461 869 475 866 q 434 872 448 872 q 380 850 398 872 q 352 769 362 828 l 327 626 l 434 626 l 416 515 l 308 515 l 209 -37 q 185 -135 200 -89 q 145 -212 170 -180 q 83 -261 120 -243 q -9 -280 45 -280 q -49 -277 -33 -280 q -83 -268 -65 -274 l -68 -138 q -12 -147 -43 -147 q 43 -124 23 -147 q 69 -63 62 -102 l 173 515 l 62 515 l 77 626 "},"J":{"x_min":-30.75,"x_max":396,"ha":463,"o":"m 396 233 q 379 141 396 185 q 331 64 362 97 q 255 11 299 30 q 153 -8 210 -8 q 40 21 85 -8 q -30 81 -4 51 l 80 170 q 115 144 95 154 q 158 134 135 134 q 187 138 170 134 q 218 156 204 143 q 243 192 233 170 q 254 253 254 215 l 254 989 l 396 989 l 396 233 "},"Ã":{"x_min":2.78125,"x_max":562.546875,"ha":566,"o":"m 283 704 l 280 704 l 211 346 l 352 346 l 283 704 m 223 989 l 341 989 l 562 0 l 420 0 l 379 213 l 186 213 l 144 0 l 2 0 l 223 989 m 520 1207 q 503 1147 513 1175 q 476 1098 493 1119 q 436 1065 460 1077 q 379 1053 412 1053 q 334 1061 362 1053 q 275 1079 305 1069 q 218 1099 244 1090 q 179 1108 191 1108 q 134 1090 150 1108 q 118 1046 119 1073 l 47 1046 q 62 1105 52 1077 q 90 1154 73 1133 q 130 1187 106 1175 q 187 1200 154 1200 q 232 1191 204 1200 q 291 1171 261 1182 q 349 1153 322 1161 q 387 1145 376 1145 q 432 1162 417 1145 q 449 1207 447 1179 l 520 1207 "},"‐":{"x_min":61,"x_max":479,"ha":540,"o":"m 61 456 l 479 456 l 479 314 l 61 314 l 61 456 "},"©":{"x_min":53,"x_max":1058,"ha":1111,"o":"m 819 399 q 787 310 809 350 q 732 241 764 269 q 659 197 699 212 q 573 182 619 182 q 450 206 505 182 q 356 273 395 230 q 296 372 317 315 q 276 494 276 429 q 296 620 276 562 q 353 720 316 678 q 445 785 391 761 q 569 809 499 809 q 658 795 616 809 q 734 754 701 781 q 789 688 767 728 q 819 598 812 648 l 727 598 q 707 645 721 623 q 673 682 694 667 q 626 707 652 698 q 570 717 599 717 q 488 699 524 717 q 427 652 452 682 q 389 582 402 622 q 376 497 376 543 q 389 414 376 454 q 429 342 403 373 q 491 292 455 311 q 573 274 528 274 q 675 310 632 274 q 727 399 717 346 l 819 399 m 958 494 q 926 653 958 579 q 840 784 894 728 q 712 872 785 839 q 555 905 638 905 q 398 872 472 905 q 270 784 325 839 q 184 653 216 728 q 153 494 153 579 q 184 335 153 409 q 270 204 216 260 q 398 116 325 149 q 555 84 472 84 q 712 116 638 84 q 840 204 785 149 q 926 335 894 260 q 958 494 958 409 m 53 494 q 92 690 53 598 q 200 849 132 781 q 359 957 268 917 q 555 997 451 997 q 751 957 659 997 q 910 849 842 917 q 1018 690 978 781 q 1058 494 1058 598 q 1018 298 1058 390 q 910 139 978 207 q 751 31 842 71 q 555 -8 659 -8 q 359 31 451 -8 q 200 139 268 71 q 92 298 132 207 q 53 494 53 390 "},"˘":{"x_min":-85,"x_max":343,"ha":258,"o":"m 343 993 q 129 804 313 804 q -85 993 -55 804 l -14 993 q -3 954 -11 973 q 20 920 3 935 q 63 896 37 905 q 129 887 90 887 q 194 896 167 887 q 237 920 220 905 q 261 954 254 935 q 272 993 269 973 l 343 993 "},"≥":{"x_min":54.1875,"x_max":507,"ha":557,"o":"m 504 511 l 504 419 l 60 150 l 60 254 l 426 463 l 426 466 l 60 675 l 60 779 l 504 511 m 54 14 l 54 103 l 507 103 l 507 14 l 54 14 "},"D":{"x_min":67,"x_max":525,"ha":592,"o":"m 67 989 l 276 989 q 461 921 397 989 q 525 733 525 854 l 525 270 q 457 65 525 131 q 264 0 390 0 l 67 0 l 67 989 m 209 133 l 273 133 q 358 162 333 133 q 383 256 383 192 l 383 733 q 359 824 383 792 q 273 856 336 856 l 209 856 l 209 133 "},"":{"x_min":47,"x_max":470,"ha":517,"o":"m 47 784 q 64 873 47 834 q 111 940 81 912 q 178 982 140 967 q 258 997 216 997 q 338 982 300 997 q 405 939 376 967 q 452 873 435 912 q 470 784 470 834 l 328 784 q 308 834 328 814 q 258 855 289 855 q 208 834 227 855 q 189 784 189 814 l 189 651 q 253 674 222 666 q 320 683 283 683 q 389 664 357 683 q 439 619 421 646 q 464 560 458 590 q 470 488 470 531 l 470 204 q 452 115 470 154 q 405 48 435 76 q 338 6 376 21 q 258 -8 300 -8 q 178 6 216 -8 q 111 48 140 21 q 64 115 81 76 q 47 204 47 154 l 47 784 m 189 204 q 209 153 189 172 q 258 134 230 134 q 307 153 286 134 q 328 204 328 172 l 328 487 q 307 538 328 519 q 258 558 286 558 q 209 538 230 558 q 189 487 189 519 l 189 204 "},"ÿ":{"x_min":-2.078125,"x_max":489.796875,"ha":488,"o":"m 147 704 l 245 265 l 248 265 l 343 704 l 489 704 l 287 -122 q 255 -200 275 -169 q 209 -250 235 -232 q 152 -277 182 -269 q 90 -285 122 -285 l 52 -285 l 52 -152 l 84 -152 q 120 -146 104 -152 q 147 -122 135 -140 q 168 -66 159 -103 q 191 31 178 -29 l -2 704 l 147 704 m 69 956 l 194 956 l 194 814 l 69 814 l 69 956 m 294 956 l 419 956 l 419 814 l 294 814 l 294 956 "},"ł":{"x_min":-19.453125,"x_max":261.4375,"ha":258,"o":"m 50 428 l -19 366 l -19 466 l 50 528 l 50 989 l 192 989 l 192 652 l 261 713 l 261 612 l 192 553 l 192 199 q 206 144 192 158 q 261 125 221 129 l 261 -8 q 173 0 212 -8 q 106 28 133 7 q 64 89 79 50 q 50 189 50 128 l 50 428 "},"Ł":{"x_min":0.328125,"x_max":489.578125,"ha":514,"o":"m 67 368 l 0 315 l 0 440 l 67 493 l 67 989 l 209 989 l 209 604 l 375 737 l 375 612 l 209 479 l 209 142 l 489 142 l 489 0 l 67 0 l 67 368 "},"$":{"x_min":15,"x_max":502,"ha":517,"o":"m 224 855 q 175 806 187 841 q 164 727 164 772 q 173 652 164 677 q 224 606 183 626 l 224 855 m 295 133 q 349 182 339 144 q 360 280 360 219 q 357 338 360 315 q 348 377 355 362 q 328 403 340 393 q 294 422 315 413 l 295 133 m 224 -8 q 139 16 178 -2 q 73 66 101 36 q 30 137 45 97 q 15 223 15 178 l 15 279 l 157 279 l 157 229 q 172 169 157 197 q 224 133 187 141 l 224 452 l 176 472 q 53 571 84 509 q 22 726 22 633 q 72 907 22 831 q 224 997 122 983 l 224 1101 l 295 1101 l 295 997 q 380 970 342 991 q 445 918 418 949 q 487 849 472 887 q 502 773 502 812 l 502 704 l 360 704 l 360 735 q 345 812 360 780 q 295 855 330 844 l 295 576 l 353 552 q 429 510 400 534 q 474 453 458 486 q 496 378 490 420 q 502 282 502 336 q 491 171 502 222 q 456 82 481 121 q 392 21 432 44 q 295 -8 353 -2 l 295 -124 l 224 -124 l 224 -8 "},"w":{"x_min":1.390625,"x_max":743.109375,"ha":745,"o":"m 576 0 l 451 0 l 373 417 l 370 417 l 293 0 l 168 0 l 1 704 l 151 704 l 237 266 l 240 266 l 319 704 l 430 704 l 505 266 l 508 266 l 593 704 l 743 704 l 576 0 "},"\\":{"x_min":7,"x_max":301,"ha":308,"o":"m 301 -8 l 190 -8 l 7 997 l 117 997 l 301 -8 "},"∫":{"x_min":38.59375,"x_max":410.5,"ha":454,"o":"m 395 1077 q 380 1084 388 1081 q 361 1087 373 1087 q 311 1050 331 1087 q 289 965 295 1023 q 284 814 284 907 q 286 648 284 730 q 291 483 288 566 q 295 314 293 401 q 298 137 298 228 q 288 -35 298 33 q 257 -146 278 -103 q 196 -214 235 -194 q 114 -235 156 -235 q 69 -229 88 -235 q 38 -216 49 -223 l 58 -105 q 74 -112 64 -108 q 96 -117 83 -117 q 121 -110 109 -117 q 141 -87 133 -103 q 158 -13 152 -64 q 165 131 165 37 q 162 312 165 224 q 158 484 160 399 q 153 653 155 569 q 151 826 151 738 q 154 934 151 887 q 165 1018 158 981 q 185 1083 173 1055 q 214 1134 198 1110 q 273 1180 237 1163 q 346 1197 309 1197 q 382 1193 366 1197 q 410 1184 399 1190 l 395 1077 "},"Ì":{"x_min":-43.0625,"x_max":231.96875,"ha":283,"o":"m 71 989 l 213 989 l 213 0 l 71 0 l 71 989 m 231 1033 l 140 1033 l -43 1229 l 106 1229 l 231 1033 "},"Ç":{"x_min":58,"x_max":517,"ha":566,"o":"m 266 -8 q 191 8 229 -5 q 124 49 153 22 q 76 119 94 76 q 58 225 58 162 l 58 769 q 74 859 58 817 q 121 931 91 901 q 195 979 152 962 q 288 997 237 997 q 379 979 337 997 q 451 930 421 962 q 499 855 482 899 q 517 760 517 811 l 517 704 l 375 704 l 375 752 q 351 824 375 793 q 287 855 327 855 q 217 822 234 855 q 200 739 200 789 l 200 235 q 218 163 200 192 q 286 134 237 134 q 315 138 300 134 q 345 154 331 143 q 366 185 358 165 q 375 234 375 204 l 375 282 l 517 282 l 517 221 q 503 143 517 181 q 464 75 489 106 q 406 23 440 44 q 332 -6 372 2 l 272 -83 q 293 -81 283 -82 q 315 -81 304 -81 q 372 -90 349 -81 q 408 -116 394 -100 q 427 -150 421 -132 q 433 -184 433 -168 q 417 -242 433 -218 q 376 -281 401 -266 q 321 -304 351 -297 q 262 -311 291 -311 q 187 -301 221 -311 q 133 -285 152 -291 l 156 -226 q 201 -240 178 -234 q 246 -247 223 -247 q 271 -244 258 -247 q 295 -236 284 -242 q 314 -219 306 -230 q 322 -190 322 -208 q 302 -152 322 -166 q 259 -138 283 -138 q 205 -147 230 -138 l 181 -119 l 266 -8 "},"C":{"x_min":58,"x_max":517,"ha":566,"o":"m 517 221 q 499 133 517 175 q 451 60 482 92 q 380 10 421 29 q 291 -8 338 -8 q 209 3 251 -8 q 134 41 167 14 q 79 112 101 68 q 58 225 58 157 l 58 769 q 74 859 58 817 q 121 931 91 901 q 195 979 152 962 q 288 997 237 997 q 379 979 337 997 q 451 930 421 962 q 499 855 482 899 q 517 760 517 811 l 517 704 l 375 704 l 375 752 q 351 824 375 793 q 287 855 327 855 q 217 822 234 855 q 200 739 200 789 l 200 235 q 218 163 200 192 q 286 134 237 134 q 315 138 300 134 q 345 154 331 143 q 366 185 358 165 q 375 234 375 204 l 375 282 l 517 282 l 517 221 "},"!":{"x_min":77.78125,"x_max":255.578125,"ha":333,"o":"m 77 989 l 255 989 l 201 244 l 131 244 l 77 989 m 96 142 l 238 142 l 238 0 l 96 0 l 96 142 "},"ç":{"x_min":67,"x_max":489,"ha":514,"o":"m 243 -6 q 152 27 190 0 q 93 92 114 53 q 72 156 78 120 q 67 235 67 192 l 67 468 q 72 547 67 511 q 93 611 78 583 q 165 685 118 657 q 278 713 212 713 q 366 696 326 713 q 432 649 405 679 q 474 578 459 619 q 489 488 489 536 l 347 488 q 328 550 347 530 q 278 571 309 571 q 227 550 246 571 q 209 490 209 530 l 209 202 q 227 151 209 169 q 278 133 246 133 q 331 156 318 133 q 347 203 344 180 l 489 203 q 474 120 489 159 q 432 53 459 81 q 305 -6 382 2 l 246 -83 q 267 -81 257 -82 q 289 -81 277 -81 q 345 -90 323 -81 q 382 -116 368 -100 q 401 -150 395 -132 q 407 -184 407 -168 q 391 -242 407 -218 q 350 -281 375 -266 q 295 -304 325 -297 q 236 -311 265 -311 q 161 -301 195 -311 q 107 -285 126 -291 l 130 -226 q 175 -240 152 -234 q 220 -247 197 -247 q 245 -244 232 -247 q 269 -236 258 -242 q 288 -219 280 -230 q 296 -190 296 -208 q 276 -152 296 -166 q 233 -138 257 -138 q 179 -147 204 -138 l 155 -119 l 243 -6 "},"È":{"x_min":67,"x_max":489.578125,"ha":514,"o":"m 67 989 l 489 989 l 489 856 l 209 856 l 209 565 l 453 565 l 453 432 l 209 432 l 209 142 l 489 142 l 489 0 l 67 0 l 67 989 m 361 1033 l 269 1033 l 86 1229 l 236 1229 l 361 1033 "},"ﬁ":{"x_min":6.546875,"x_max":507,"ha":565,"o":"m 76 593 l 6 593 l 6 704 l 76 704 l 76 799 q 91 886 76 851 q 132 945 106 922 q 190 978 158 968 q 258 989 223 989 l 323 989 l 323 856 l 259 856 q 218 807 218 856 l 218 704 l 323 704 l 323 593 l 218 593 l 218 0 l 76 0 l 76 593 m 365 704 l 507 704 l 507 0 l 365 0 l 365 704 m 365 989 l 507 989 l 507 848 l 365 848 l 365 989 "},"X":{"x_min":-2.78125,"x_max":543.09375,"ha":540,"o":"m 197 518 l 12 989 l 162 989 l 269 695 l 377 989 l 527 989 l 338 518 l 543 0 l 393 0 l 269 333 l 147 0 l -2 0 l 197 518 "},"ô":{"x_min":46,"x_max":468,"ha":514,"o":"m 46 468 q 51 547 46 511 q 72 611 57 583 q 144 685 97 657 q 257 713 191 713 q 369 685 322 713 q 441 611 416 657 q 462 547 456 583 q 468 468 468 511 l 468 236 q 462 157 468 193 q 441 93 456 121 q 369 19 416 47 q 257 -8 322 -8 q 144 19 191 -8 q 72 93 97 47 q 51 157 57 121 q 46 236 46 193 l 46 468 m 188 214 q 206 154 188 174 q 257 134 225 134 q 307 154 288 134 q 326 214 326 174 l 326 490 q 307 550 326 530 q 257 571 288 571 q 206 550 225 571 q 188 490 188 530 l 188 214 m 192 993 l 322 993 l 458 797 l 349 797 l 257 929 l 164 797 l 56 797 l 192 993 "},"}":{"x_min":3.890625,"x_max":304,"ha":308,"o":"m 304 385 q 240 340 265 385 q 215 225 215 296 l 215 15 q 174 -98 215 -58 q 78 -139 134 -139 l 3 -139 l 3 -56 l 28 -56 q 76 -31 62 -56 q 90 37 90 -7 l 90 244 q 99 324 90 291 q 123 379 109 358 q 154 410 137 400 q 186 423 170 420 l 185 426 q 153 440 170 429 q 123 472 137 451 q 99 525 109 493 q 90 604 90 558 l 90 814 q 76 881 90 857 q 28 906 62 906 l 3 906 l 3 989 l 78 989 q 174 948 134 989 q 215 834 215 908 l 215 623 q 240 511 215 555 q 304 468 265 468 l 304 385 "},"â":{"x_min":35,"x_max":468,"ha":514,"o":"m 326 72 l 323 72 q 266 12 295 33 q 187 -8 238 -8 q 136 0 162 -8 q 86 27 109 7 q 49 84 64 47 q 35 179 35 121 q 44 284 35 239 q 80 359 54 329 q 148 403 105 388 q 258 418 191 418 q 288 416 273 418 q 326 414 303 415 l 326 487 q 310 547 326 523 q 255 571 295 571 q 205 552 228 571 q 176 500 182 534 l 38 500 q 101 653 44 596 q 168 696 129 680 q 255 713 207 713 q 339 699 300 713 q 406 657 377 685 q 451 587 434 629 q 468 490 468 546 l 468 0 l 326 0 l 326 72 m 326 302 q 287 307 302 307 q 209 285 241 307 q 177 207 177 264 q 196 141 177 166 q 250 117 215 117 q 305 140 285 117 q 326 207 326 164 l 326 302 m 191 993 l 322 993 l 458 797 l 349 797 l 257 929 l 164 797 l 55 797 l 191 993 "},"ø":{"x_min":5.71875,"x_max":508.28125,"ha":514,"o":"m 322 516 q 257 571 313 571 q 206 550 225 571 q 188 490 188 530 l 188 290 l 190 290 l 322 516 m 192 188 q 256 134 200 134 q 307 154 288 134 q 326 214 326 174 l 326 413 l 323 413 l 192 188 m 73 98 q 46 219 46 154 l 46 484 q 60 576 46 535 q 102 648 75 618 q 168 695 129 678 q 256 713 208 713 q 403 654 348 713 l 461 750 l 508 721 l 440 605 q 468 484 468 550 l 468 219 q 453 128 468 169 q 411 56 438 86 q 345 9 384 26 q 257 -8 305 -8 q 110 50 165 -8 l 53 -46 l 5 -17 l 73 98 "},"Ä":{"x_min":2.15625,"x_max":561.859375,"ha":565,"o":"m 283 704 l 280 704 l 210 346 l 352 346 l 283 704 m 223 989 l 341 989 l 561 0 l 420 0 l 378 213 l 185 213 l 143 0 l 2 0 l 223 989 m 108 1192 l 233 1192 l 233 1050 l 108 1050 l 108 1192 m 333 1192 l 458 1192 l 458 1050 l 333 1050 l 333 1192 "},"‰":{"x_min":13,"x_max":733,"ha":746,"o":"m 580 111 q 590 85 580 95 q 615 75 601 75 q 639 85 629 75 q 650 111 650 95 l 650 181 q 639 207 650 197 q 615 218 629 218 q 590 207 601 218 q 580 181 580 197 l 580 111 m 497 187 q 528 270 497 240 q 615 301 560 301 q 701 270 669 301 q 733 187 733 240 l 733 97 q 701 21 733 50 q 615 -8 669 -8 q 528 21 560 -8 q 497 97 497 50 l 497 187 m 96 807 q 106 781 96 791 q 130 771 116 771 q 154 781 144 771 q 165 807 165 791 l 165 877 q 154 903 165 893 q 130 914 144 914 q 106 903 116 914 q 96 877 96 893 l 96 807 m 13 883 q 44 966 13 936 q 130 997 76 997 q 216 966 184 997 q 248 883 248 936 l 248 793 q 216 717 248 746 q 130 688 184 688 q 44 717 76 688 q 13 793 13 746 l 13 883 m 312 111 q 322 85 312 95 q 347 75 333 75 q 371 85 361 75 q 382 111 382 95 l 382 181 q 371 207 382 197 q 347 218 361 218 q 322 207 333 218 q 312 181 312 197 l 312 111 m 229 187 q 260 270 229 240 q 347 301 292 301 q 433 270 401 301 q 465 187 465 240 l 465 97 q 433 21 465 50 q 347 -8 401 -8 q 260 21 292 -8 q 229 97 229 50 l 229 187 m 366 989 l 458 988 l 119 0 l 28 0 l 366 989 "},"N":{"x_min":61,"x_max":556,"ha":617,"o":"m 61 989 l 197 989 l 411 393 l 414 393 l 414 989 l 556 989 l 556 0 l 422 0 l 205 594 l 203 594 l 203 0 l 61 0 l 61 989 "},"—":{"x_min":0,"x_max":1389,"ha":1389,"o":"m 0 451 l 1389 451 l 1389 318 l 0 318 l 0 451 "},"2":{"x_min":47,"x_max":470,"ha":517,"o":"m 47 133 l 302 614 q 325 678 322 650 q 328 745 328 705 q 326 783 328 763 q 318 818 325 803 q 298 844 312 834 q 258 855 284 855 q 207 836 226 855 q 189 784 189 818 l 189 703 l 47 703 l 47 781 q 63 864 47 825 q 108 932 80 903 q 176 979 137 962 q 259 997 215 997 q 355 976 315 997 q 420 922 394 956 q 458 842 446 887 q 470 748 470 798 q 468 688 470 712 q 463 641 467 663 q 449 597 458 619 q 422 543 439 575 l 213 142 l 470 142 l 470 0 l 47 0 l 47 133 "},"⁄":{"x_min":-229,"x_max":461,"ha":232,"o":"m 377 1012 l 461 1012 l -145 -24 l -229 -24 l 377 1012 "},"ü":{"x_min":58,"x_max":482,"ha":540,"o":"m 482 0 l 340 0 l 340 68 l 337 68 q 284 13 315 35 q 204 -8 252 -8 q 151 1 177 -8 q 103 30 124 10 q 70 84 83 51 q 58 164 58 116 l 58 704 l 200 704 l 200 217 q 218 156 200 178 q 269 134 236 134 q 324 158 309 134 q 340 231 340 183 l 340 704 l 482 704 l 482 0 m 96 956 l 221 956 l 221 814 l 96 814 l 96 956 m 321 956 l 446 956 l 446 814 l 321 814 l 321 956 "},"Ó":{"x_min":58,"x_max":534,"ha":592,"o":"m 58 755 q 78 860 58 815 q 133 936 99 906 q 210 981 167 966 q 296 997 252 997 q 381 981 339 997 q 458 936 424 966 q 513 860 492 906 q 534 755 534 815 l 534 233 q 513 127 534 172 q 458 52 492 82 q 381 7 424 22 q 296 -8 339 -8 q 210 7 252 -8 q 133 52 167 22 q 78 127 99 82 q 58 233 58 172 l 58 755 m 200 233 q 228 158 200 182 q 296 134 257 134 q 363 158 334 134 q 392 233 392 182 l 392 755 q 363 830 392 806 q 296 855 334 855 q 228 830 257 855 q 200 755 200 806 l 200 233 m 331 1229 l 481 1229 l 297 1033 l 206 1033 l 331 1229 "},"˜":{"x_min":-107,"x_max":365,"ha":258,"o":"m 365 971 q 348 911 358 939 q 321 862 338 883 q 281 829 305 841 q 224 817 258 817 q 179 825 208 817 q 120 843 151 833 q 63 863 90 854 q 25 872 37 872 q -19 854 -4 872 q -36 810 -34 837 l -107 810 q -91 869 -101 841 q -63 918 -80 897 q -23 951 -47 939 q 33 964 0 964 q 78 955 49 964 q 137 935 106 946 q 194 917 167 925 q 232 909 221 909 q 277 926 262 909 q 294 971 292 943 l 365 971 "},"ˇ":{"x_min":-72,"x_max":331,"ha":259,"o":"m 194 797 l 64 797 l -72 993 l 36 993 l 129 861 l 222 993 l 331 993 l 194 797 "},"Ÿ":{"x_min":3.546875,"x_max":534.453125,"ha":538,"o":"m 198 418 l 3 989 l 153 989 l 267 595 l 270 595 l 384 989 l 534 989 l 340 418 l 340 0 l 198 0 l 198 418 m 94 1192 l 219 1192 l 219 1050 l 94 1050 l 94 1192 m 319 1192 l 444 1192 l 444 1050 l 319 1050 l 319 1192 "},"€":{"x_min":21.765625,"x_max":473.96875,"ha":517,"o":"m 473 832 q 434 857 458 847 q 368 867 410 867 q 279 814 310 867 q 242 651 248 762 l 440 651 l 412 543 l 235 543 l 235 497 l 235 450 l 389 450 l 361 340 l 242 340 q 280 171 248 222 q 368 121 312 121 q 434 129 410 121 q 473 154 458 138 l 473 19 q 428 0 460 8 q 342 -7 396 -7 q 181 72 242 -7 q 106 340 121 152 l 22 340 l 49 450 l 94 450 q 93 472 93 459 q 93 497 93 484 q 93 518 93 506 q 94 543 93 530 l 21 543 l 49 651 l 103 651 q 177 911 116 827 q 343 996 237 996 q 426 985 393 996 q 473 964 460 975 l 473 832 "},"ß":{"x_min":58,"x_max":482,"ha":540,"o":"m 58 766 q 70 853 58 812 q 108 927 83 895 q 174 978 134 959 q 267 997 213 997 q 368 977 327 997 q 434 924 409 958 q 470 843 459 890 q 482 744 482 797 q 478 682 482 707 q 465 637 475 657 q 440 603 456 618 q 399 572 424 589 q 461 517 440 550 q 482 430 482 483 l 482 186 q 464 82 482 121 q 419 24 447 44 q 354 -1 391 4 q 278 -8 317 -8 l 278 125 q 324 138 309 125 q 340 195 340 151 l 340 460 q 324 496 340 487 q 278 506 308 506 l 278 631 q 325 641 310 631 q 340 685 340 651 l 340 796 q 326 844 340 825 q 273 864 313 864 q 216 837 233 864 q 200 741 200 811 l 200 0 l 58 0 l 58 766 "},"Ω":{"x_min":31,"x_max":596,"ha":632,"o":"m 152 128 q 77 304 109 198 q 46 540 46 410 q 65 717 46 636 q 120 857 84 798 q 207 950 157 916 q 320 985 258 985 q 438 946 388 985 q 519 846 487 908 q 566 707 551 785 q 582 554 582 630 q 572 425 582 487 q 548 307 563 362 q 513 206 533 251 q 473 128 494 161 l 473 124 l 596 124 l 596 0 l 357 0 l 357 87 q 418 241 391 131 q 446 515 446 351 q 439 640 446 579 q 416 748 432 701 q 376 824 401 796 q 316 853 351 853 q 258 827 283 853 q 215 757 232 802 q 190 648 199 711 q 181 511 181 586 q 188 368 181 436 q 208 245 196 301 q 237 150 221 190 q 270 87 253 109 l 270 0 l 31 0 l 31 124 l 152 124 l 152 128 "},"s":{"x_min":34,"x_max":455,"ha":488,"o":"m 315 507 q 292 561 313 543 q 243 580 270 580 q 191 558 209 580 q 174 509 174 536 q 183 470 174 489 q 233 436 193 452 l 316 403 q 425 320 395 372 q 455 204 455 267 q 439 121 455 160 q 395 54 423 83 q 328 8 367 25 q 244 -8 290 -8 q 165 5 202 -8 q 99 46 128 19 q 53 112 71 72 q 34 205 35 152 l 167 205 q 187 150 171 175 q 243 125 202 125 q 297 145 273 125 q 322 201 322 165 q 306 251 322 230 q 251 287 291 272 l 183 312 q 79 387 117 337 q 41 507 41 436 q 57 589 41 551 q 102 655 74 628 q 168 697 130 682 q 248 713 205 713 q 328 696 291 713 q 391 653 364 680 q 432 588 417 626 q 448 507 448 550 l 315 507 "},"?":{"x_min":44,"x_max":470,"ha":514,"o":"m 44 785 q 60 867 44 828 q 106 935 77 906 q 174 980 135 963 q 258 997 213 997 q 352 976 309 997 q 422 917 394 955 q 445 881 436 898 q 460 845 454 864 q 467 803 465 827 q 470 748 470 780 q 469 687 470 711 q 465 645 468 663 q 458 614 463 627 q 447 589 454 600 l 351 425 q 334 391 341 409 q 328 354 328 374 l 328 243 l 186 243 l 186 373 q 195 431 186 403 q 220 485 205 459 l 309 629 q 324 668 321 648 q 328 710 328 689 l 328 784 q 307 834 328 813 q 258 855 287 855 q 209 836 233 855 q 186 784 186 818 l 186 703 l 44 703 l 44 785 m 186 142 l 328 142 l 328 0 l 186 0 l 186 142 "},"c":{"x_min":67,"x_max":489,"ha":514,"o":"m 209 203 q 227 152 209 170 q 278 134 246 134 q 331 157 318 134 q 347 205 344 181 l 489 205 q 474 121 489 160 q 432 54 459 82 q 365 8 404 25 q 278 -8 326 -8 q 165 19 212 -8 q 93 93 118 47 q 72 157 78 121 q 67 236 67 193 l 67 468 q 72 547 67 511 q 93 611 78 583 q 165 685 118 657 q 278 713 212 713 q 366 696 326 713 q 432 649 405 679 q 474 578 459 619 q 489 488 489 536 l 347 488 q 328 550 347 530 q 278 571 309 571 q 227 550 246 571 q 209 490 209 530 l 209 203 "},"¶":{"x_min":11.3125,"x_max":553,"ha":617,"o":"m 253 463 q 164 483 207 463 q 87 538 121 504 q 32 620 52 573 q 11 722 11 668 q 33 840 11 790 q 95 923 55 890 q 190 973 134 957 q 314 989 246 989 l 553 989 l 553 -285 l 453 -285 l 453 918 l 353 918 l 353 -285 l 253 -285 l 253 463 "},"•":{"x_min":100,"x_max":594,"ha":694,"o":"m 100 494 q 119 590 100 545 q 172 668 138 635 q 250 721 205 702 q 347 741 295 741 q 443 721 398 741 q 521 668 488 702 q 574 590 555 635 q 594 494 594 545 q 574 397 594 442 q 521 319 555 352 q 443 266 488 285 q 347 247 398 247 q 250 266 295 247 q 172 319 205 285 q 119 397 138 352 q 100 494 100 442 "},"(":{"x_min":69,"x_max":281.84375,"ha":308,"o":"m 281 989 q 226 692 241 845 q 211 386 211 538 q 229 113 211 244 q 281 -138 248 -16 l 234 -138 q 161 -8 192 -79 q 110 136 130 62 q 79 284 89 209 q 69 425 69 358 q 80 571 69 495 q 112 720 91 647 q 165 862 134 794 q 234 989 195 930 l 281 989 "},"◊":{"x_min":55.5625,"x_max":554.21875,"ha":608,"o":"m 356 -53 l 241 -53 l 55 484 l 252 1024 l 368 1024 l 554 484 l 356 -53 m 330 793 q 318 844 323 816 q 309 892 312 871 l 305 892 q 296 844 301 869 q 284 793 291 819 l 179 489 l 280 169 q 291 119 287 146 q 298 78 295 93 l 305 78 q 309 98 306 86 q 313 124 311 111 q 318 148 316 137 q 323 166 320 159 l 430 482 l 330 793 "},"­":{"x_min":61,"x_max":479,"ha":540,"o":"m 61 456 l 479 456 l 479 314 l 61 314 l 61 456 "},":":{"x_min":58,"x_max":200,"ha":258,"o":"m 58 142 l 200 142 l 200 0 l 58 0 l 58 142 m 58 457 l 200 457 l 200 315 l 58 315 l 58 457 "},"Û":{"x_min":67,"x_max":525,"ha":592,"o":"m 525 222 q 506 132 525 173 q 457 59 488 90 q 384 10 426 28 q 296 -8 343 -8 q 207 10 248 -8 q 134 59 165 28 q 85 132 103 90 q 67 222 67 173 l 67 989 l 209 989 l 209 236 q 233 158 209 183 q 296 134 258 134 q 358 158 333 134 q 383 236 383 183 l 383 989 l 525 989 l 525 222 m 230 1229 l 361 1229 l 497 1033 l 389 1033 l 296 1164 l 203 1033 l 94 1033 l 230 1229 "},"V":{"x_min":18.0625,"x_max":547.265625,"ha":565,"o":"m 344 0 l 219 0 l 18 989 l 168 989 l 280 298 l 283 298 l 397 989 l 547 989 l 344 0 "}," ":{"x_min":0,"x_max":0,"ha":258},"@":{"x_min":75,"x_max":1081,"ha":1112,"o":"m 712 569 q 686 651 712 618 q 609 685 659 685 q 525 659 564 685 q 457 593 486 633 q 412 505 429 553 q 396 414 396 457 q 427 324 396 355 q 511 293 458 293 q 586 321 550 293 q 651 389 623 348 q 696 479 679 430 q 712 569 712 528 m 767 378 q 756 342 760 359 q 753 316 753 326 q 760 287 753 298 q 785 276 767 276 q 851 303 818 276 q 912 375 885 331 q 956 471 939 419 q 974 574 974 524 q 943 707 974 646 q 861 812 912 768 q 742 880 810 856 q 601 905 675 905 q 437 870 514 905 q 304 778 361 835 q 214 646 247 721 q 182 490 182 570 q 214 331 182 405 q 304 202 247 257 q 440 115 362 147 q 608 84 518 84 q 708 95 658 84 q 803 126 758 107 q 884 173 847 146 q 946 228 921 199 l 1053 228 q 970 129 1019 173 q 862 54 921 84 q 735 7 803 23 q 597 -8 668 -8 q 393 30 489 -8 q 227 135 298 68 q 115 296 156 203 q 75 497 75 389 q 116 692 75 601 q 229 851 158 783 q 397 958 301 919 q 600 997 493 997 q 785 966 697 997 q 938 880 872 935 q 1042 749 1004 824 q 1081 581 1081 673 q 1048 422 1081 494 q 967 300 1015 351 q 863 221 918 249 q 764 193 808 193 q 689 214 716 193 q 655 280 661 236 l 653 280 q 621 248 637 264 q 585 220 605 233 q 540 200 565 208 q 483 193 515 193 q 402 209 439 193 q 339 255 365 226 q 298 322 312 284 q 285 404 285 361 q 308 540 285 472 q 374 662 332 608 q 476 750 416 716 q 610 785 536 785 q 703 759 658 785 q 769 676 748 733 l 772 676 l 800 761 l 887 761 l 767 378 "},"¾":{"x_min":15,"x_max":755.65625,"ha":771,"o":"m 658 1012 l 741 1012 l 134 -23 l 51 -23 l 658 1012 m 139 750 q 194 759 179 750 q 210 797 208 768 l 210 855 q 198 885 210 873 q 168 897 187 897 q 135 882 145 897 q 126 855 126 867 l 126 819 l 15 819 l 15 863 q 58 959 15 921 q 170 997 101 997 q 237 985 209 997 q 284 953 265 973 q 311 908 302 933 q 321 858 321 883 l 321 801 q 311 748 321 771 q 264 706 301 725 q 309 662 297 686 q 321 604 321 639 l 321 533 q 312 482 321 508 q 285 437 304 456 q 237 405 266 418 q 168 393 208 393 q 112 399 140 393 q 62 422 84 406 q 28 462 41 437 q 15 523 15 487 l 15 571 l 126 571 l 126 538 q 137 505 126 518 q 168 493 148 493 q 198 506 186 493 q 210 534 210 519 l 210 606 q 196 648 210 638 q 139 658 182 658 l 139 750 m 603 86 l 404 86 l 404 172 l 540 593 l 651 593 l 520 178 l 603 178 l 603 337 l 714 337 l 714 178 l 755 178 l 755 86 l 714 86 l 714 0 l 603 0 l 603 86 "},"i":{"x_min":58,"x_max":200,"ha":258,"o":"m 58 704 l 200 704 l 200 0 l 58 0 l 58 704 m 58 989 l 200 989 l 200 847 l 58 847 l 58 989 "},"≤":{"x_min":53,"x_max":507.203125,"ha":557,"o":"m 57 418 l 57 511 l 499 779 l 499 675 l 133 466 l 133 463 l 499 254 l 499 150 l 57 418 m 53 14 l 53 103 l 507 103 l 507 14 l 53 14 "},"m":{"x_min":58,"x_max":764,"ha":822,"o":"m 58 704 l 200 704 l 200 636 l 203 636 q 256 691 225 669 q 336 713 287 713 q 412 690 381 713 q 462 642 443 668 q 520 692 488 671 q 609 713 552 713 q 663 703 636 713 q 713 674 691 694 q 750 620 736 653 q 764 540 764 587 l 764 0 l 622 0 l 622 487 q 603 548 622 526 q 552 571 585 571 q 497 545 512 571 q 482 473 482 520 l 482 0 l 340 0 l 340 487 q 321 548 340 526 q 270 571 303 571 q 215 545 230 571 q 200 473 200 520 l 200 0 l 58 0 l 58 704 "},"ž":{"x_min":18,"x_max":421,"ha":438,"o":"m 24 112 l 252 579 l 42 579 l 42 704 l 414 704 l 414 591 l 184 133 l 414 133 l 413 0 l 24 0 l 24 112 m 284 797 l 154 797 l 18 993 l 126 993 l 219 861 l 312 993 l 421 993 l 284 797 "},"á":{"x_min":35,"x_max":468,"ha":514,"o":"m 326 72 l 323 72 q 266 12 295 33 q 187 -8 238 -8 q 136 0 162 -8 q 86 27 109 7 q 49 84 64 47 q 35 179 35 121 q 44 284 35 239 q 80 359 54 329 q 148 403 105 388 q 258 418 191 418 q 288 416 273 418 q 326 414 303 415 l 326 487 q 310 547 326 523 q 255 571 295 571 q 205 552 228 571 q 176 500 182 534 l 38 500 q 101 653 44 596 q 168 696 129 680 q 255 713 207 713 q 339 699 300 713 q 406 657 377 685 q 451 587 434 629 q 468 490 468 546 l 468 0 l 326 0 l 326 72 m 326 302 q 287 307 302 307 q 209 285 241 307 q 177 207 177 264 q 196 141 177 166 q 250 117 215 117 q 305 140 285 117 q 326 207 326 164 l 326 302 m 291 993 l 441 993 l 258 797 l 167 797 l 291 993 "},"×":{"x_min":93,"x_max":740,"ha":833,"o":"m 338 351 l 93 597 l 172 675 l 416 430 l 662 675 l 740 597 l 495 351 l 740 107 l 662 28 l 416 273 l 172 28 l 93 107 l 338 351 "},"İ":{"x_min":71,"x_max":213,"ha":283,"o":"m 71 989 l 213 989 l 213 0 l 71 0 l 71 989 m 79 1241 l 205 1241 l 205 1099 l 79 1099 l 79 1241 "},"K":{"x_min":67,"x_max":596.53125,"ha":592,"o":"m 67 989 l 209 989 l 209 537 l 211 537 l 418 989 l 560 989 l 367 593 l 596 0 l 446 0 l 285 438 l 209 295 l 209 0 l 67 0 l 67 989 "},"7":{"x_min":47,"x_max":470,"ha":517,"o":"m 328 856 l 172 856 l 172 742 l 47 742 l 47 989 l 470 989 l 470 847 l 229 0 l 78 0 l 328 856 "},"¨":{"x_min":-46,"x_max":304,"ha":258,"o":"m -46 956 l 79 956 l 79 814 l -46 814 l -46 956 m 179 956 l 304 956 l 304 814 l 179 814 l 179 956 "},"Y":{"x_min":3.546875,"x_max":534.453125,"ha":539,"o":"m 198 418 l 3 989 l 153 989 l 267 595 l 270 595 l 384 989 l 534 989 l 340 418 l 340 0 l 198 0 l 198 418 "},"E":{"x_min":67,"x_max":489.578125,"ha":514,"o":"m 67 989 l 489 989 l 489 856 l 209 856 l 209 565 l 453 565 l 453 432 l 209 432 l 209 142 l 489 142 l 489 0 l 67 0 l 67 989 "},"Ô":{"x_min":58,"x_max":534,"ha":592,"o":"m 58 755 q 78 860 58 815 q 133 936 99 906 q 210 981 167 966 q 296 997 252 997 q 381 981 339 997 q 458 936 424 966 q 513 860 492 906 q 534 755 534 815 l 534 233 q 513 127 534 172 q 458 52 492 82 q 381 7 424 22 q 296 -8 339 -8 q 210 7 252 -8 q 133 52 167 22 q 78 127 99 82 q 58 233 58 172 l 58 755 m 200 233 q 228 158 200 182 q 296 134 257 134 q 363 158 334 134 q 392 233 392 182 l 392 755 q 363 830 392 806 q 296 855 334 855 q 228 830 257 855 q 200 755 200 806 l 200 233 m 230 1229 l 361 1229 l 497 1033 l 389 1033 l 296 1164 l 203 1033 l 94 1033 l 230 1229 "},"Ï":{"x_min":-33,"x_max":317,"ha":284,"o":"m 71 989 l 213 989 l 213 0 l 71 0 l 71 989 m -33 1192 l 92 1192 l 92 1050 l -33 1050 l -33 1192 m 192 1192 l 317 1192 l 317 1050 l 192 1050 l 192 1192 "},"‹":{"x_min":14,"x_max":296,"ha":335,"o":"m 296 523 l 155 384 l 296 245 l 296 104 l 14 384 l 296 665 l 296 523 "},"±":{"x_min":65.140625,"x_max":768.109375,"ha":833,"o":"m 361 368 l 65 368 l 65 479 l 361 479 l 361 703 l 472 703 l 472 479 l 767 479 l 767 368 l 472 368 l 472 144 l 361 144 l 361 368 m 65 111 l 768 111 l 768 0 l 65 0 l 65 111 "},"ì":{"x_min":-55.5625,"x_max":219.46875,"ha":258,"o":"m 58 704 l 200 704 l 200 0 l 58 0 l 58 704 m 219 797 l 127 797 l -55 993 l 94 993 l 219 797 "},"|":{"x_min":99,"x_max":210,"ha":308,"o":"m 99 1042 l 210 1042 l 210 -347 l 99 -347 l 99 1042 "},"§":{"x_min":46,"x_max":468,"ha":514,"o":"m 451 742 l 333 742 l 333 801 q 315 859 333 833 q 263 886 298 886 q 205 856 219 886 q 192 784 192 826 q 193 743 192 759 q 201 715 194 727 q 221 692 208 704 q 257 667 233 681 l 391 580 q 431 547 416 563 q 454 508 447 531 q 465 449 462 484 q 468 359 468 413 q 465 275 468 309 q 449 216 462 241 q 413 173 437 191 q 346 136 388 155 q 402 101 381 118 q 433 62 423 84 q 447 11 444 40 q 451 -59 451 -18 q 444 -152 451 -118 q 416 -218 437 -187 q 349 -272 392 -252 q 258 -293 305 -293 q 163 -273 201 -293 q 102 -224 125 -254 q 69 -159 79 -194 q 60 -94 60 -125 l 60 -36 l 178 -36 l 178 -93 q 199 -155 178 -129 q 254 -182 220 -182 q 315 -155 297 -182 q 333 -73 333 -129 q 330 -30 333 -47 q 323 -2 328 -13 q 310 17 319 9 q 288 34 302 26 l 125 134 q 81 170 97 151 q 57 215 65 188 q 48 276 50 241 q 46 359 46 311 q 51 459 46 419 q 71 526 57 499 q 110 568 86 552 q 174 597 135 584 q 119 631 139 613 q 89 671 100 649 q 76 719 79 692 q 74 783 74 747 q 89 877 74 837 q 130 944 104 917 q 190 983 155 970 q 263 997 225 997 q 331 985 298 997 q 391 949 365 973 q 434 890 417 926 q 451 806 451 854 l 451 742 m 188 295 q 208 243 188 265 q 257 222 228 222 q 305 243 284 222 q 326 295 326 265 l 326 433 q 305 485 326 463 q 257 506 284 506 q 208 485 228 506 q 188 433 188 463 l 188 295 "},"q":{"x_min":58,"x_max":482,"ha":540,"o":"m 340 64 l 337 64 q 280 10 313 29 q 207 -8 248 -8 q 126 10 155 -8 q 80 55 98 28 q 62 114 66 78 q 58 226 58 150 l 58 494 q 63 587 58 553 q 81 646 69 622 q 206 713 118 713 q 251 707 232 713 q 286 692 270 701 q 313 669 301 682 q 340 640 326 655 l 340 704 l 482 704 l 482 -285 l 340 -285 l 340 64 m 200 217 q 214 158 200 183 q 269 134 229 134 q 319 155 299 134 q 340 210 340 177 l 340 483 q 320 546 340 522 q 269 571 301 571 q 216 544 233 571 q 200 475 200 518 l 200 217 "},"b":{"x_min":58,"x_max":482,"ha":540,"o":"m 58 989 l 200 989 l 200 640 l 203 640 q 259 694 226 675 q 333 713 291 713 q 413 694 384 713 q 459 649 441 676 q 477 590 473 626 q 482 478 482 554 l 482 210 q 476 117 482 151 q 458 58 470 82 q 334 -8 421 -8 q 253 12 281 -8 q 200 64 226 33 l 200 0 l 58 0 l 58 989 m 340 487 q 325 546 340 521 q 270 571 310 571 q 220 549 240 571 q 200 494 200 528 l 200 221 q 219 158 200 182 q 270 134 238 134 q 323 160 306 134 q 340 229 340 186 l 340 487 "},"ﬂ":{"x_min":6.546875,"x_max":576.453125,"ha":565,"o":"m 76 593 l 6 593 l 6 704 l 76 704 l 76 799 q 91 886 76 851 q 132 945 106 922 q 190 978 158 968 q 258 989 223 989 l 323 989 l 323 856 l 259 856 q 218 807 218 856 l 218 704 l 323 704 l 323 593 l 218 593 l 218 0 l 76 0 l 76 593 m 365 989 l 507 989 l 507 198 q 521 144 507 158 q 576 125 536 129 l 576 -8 q 488 0 527 -8 q 421 28 448 7 q 379 89 394 50 q 365 189 365 128 l 365 989 "},"®":{"x_min":53,"x_max":1058,"ha":1111,"o":"m 457 539 l 561 539 q 663 559 629 539 q 697 626 697 579 q 667 685 697 666 q 590 704 637 704 l 457 704 l 457 539 m 365 787 l 587 787 q 789 622 789 787 q 777 551 789 580 q 744 503 765 522 q 696 473 723 483 q 638 459 669 463 l 806 201 l 695 201 l 527 456 l 457 456 l 457 201 l 365 201 l 365 787 m 958 494 q 926 653 958 579 q 840 784 894 728 q 712 872 785 839 q 555 905 638 905 q 398 872 472 905 q 270 784 325 839 q 184 653 216 728 q 153 494 153 579 q 184 335 153 409 q 270 204 216 260 q 398 116 325 149 q 555 84 472 84 q 712 116 638 84 q 840 204 785 149 q 926 335 894 260 q 958 494 958 409 m 53 494 q 92 690 53 598 q 200 849 132 781 q 359 957 268 917 q 555 997 451 997 q 751 957 659 997 q 910 849 842 917 q 1018 690 978 781 q 1058 494 1058 598 q 1018 298 1058 390 q 910 139 978 207 q 751 31 842 71 q 555 -8 659 -8 q 359 31 451 -8 q 200 139 268 71 q 92 298 132 207 q 53 494 53 390 "},"L":{"x_min":67,"x_max":489.578125,"ha":514,"o":"m 67 989 l 209 989 l 209 142 l 489 142 l 489 0 l 67 0 l 67 989 "}," ":{"x_min":0,"x_max":0,"ha":258},"∑":{"x_min":29,"x_max":521.859375,"ha":543,"o":"m 29 -135 l 29 -30 l 265 422 l 35 864 l 35 971 l 503 971 l 503 849 l 205 849 l 205 844 l 411 454 l 176 12 l 176 8 l 521 8 l 521 -135 l 29 -135 "},"À":{"x_min":2.78125,"x_max":562.546875,"ha":565,"o":"m 283 704 l 280 704 l 211 346 l 352 346 l 283 704 m 223 989 l 341 989 l 562 0 l 420 0 l 379 213 l 186 213 l 144 0 l 2 0 l 223 989 m 373 1033 l 281 1033 l 98 1229 l 248 1229 l 373 1033 "},"+":{"x_min":65.140625,"x_max":767.84375,"ha":833,"o":"m 361 703 l 472 703 l 472 407 l 767 407 l 767 296 l 472 296 l 472 0 l 361 0 l 361 296 l 65 296 l 65 407 l 361 407 l 361 703 "},"½":{"x_min":15.328125,"x_max":756,"ha":771,"o":"m 632 1012 l 715 1012 l 108 -23 l 25 -23 l 632 1012 m 107 888 l 15 829 l 15 929 l 107 989 l 218 989 l 218 399 l 107 399 l 107 888 m 447 75 l 628 369 q 640 395 635 382 q 645 423 645 408 l 645 455 q 630 487 645 476 q 601 499 616 499 q 570 487 583 499 q 558 455 558 476 l 558 412 l 447 412 l 447 462 q 491 560 447 521 q 602 599 536 599 q 661 589 633 599 q 710 562 689 579 q 743 523 730 546 q 756 472 756 500 l 756 426 q 747 368 756 390 q 724 322 739 346 l 592 100 l 756 100 l 756 0 l 447 0 l 447 75 "},"Ë":{"x_min":67,"x_max":489.578125,"ha":514,"o":"m 67 989 l 489 989 l 489 856 l 209 856 l 209 565 l 453 565 l 453 432 l 209 432 l 209 142 l 489 142 l 489 0 l 67 0 l 67 989 m 96 1192 l 221 1192 l 221 1050 l 96 1050 l 96 1192 m 321 1192 l 446 1192 l 446 1050 l 321 1050 l 321 1192 "},"'":{"x_min":74,"x_max":185,"ha":258,"o":"m 74 989 l 185 989 l 185 745 l 74 745 l 74 989 "},"Š":{"x_min":39,"x_max":525,"ha":564,"o":"m 525 703 l 383 703 l 383 735 q 360 819 383 784 q 283 855 337 855 q 235 843 254 855 q 206 815 217 832 q 192 775 196 798 q 188 727 188 752 q 190 678 188 698 q 200 643 192 657 q 224 617 208 628 q 268 595 240 606 l 376 552 q 452 510 423 534 q 497 453 482 485 q 519 378 513 420 q 525 281 525 336 q 512 166 525 219 q 471 74 500 112 q 395 14 443 36 q 280 -8 348 -8 q 184 10 229 -8 q 108 59 140 28 q 57 133 76 90 q 39 227 39 177 l 39 279 l 181 279 l 181 235 q 203 165 181 196 q 280 134 226 134 q 336 144 316 134 q 367 173 356 154 q 380 220 377 192 q 383 281 383 247 q 380 344 383 319 q 368 385 377 369 q 343 410 359 400 q 301 430 327 419 l 199 472 q 77 571 108 510 q 46 726 46 633 q 61 831 46 781 q 106 917 76 881 q 182 975 136 953 q 288 997 227 997 q 385 977 341 997 q 460 926 429 958 q 508 854 491 893 q 525 773 525 814 l 525 703 m 347 1033 l 216 1033 l 80 1229 l 189 1229 l 282 1097 l 374 1229 l 483 1229 l 347 1033 "},"˛":{"x_min":-1,"x_max":271.125,"ha":258,"o":"m 271 -280 q 216 -301 250 -291 q 136 -311 182 -311 q 38 -276 78 -311 q -1 -184 -1 -242 q 8 -124 -1 -151 q 36 -76 18 -98 q 77 -37 54 -55 q 128 0 100 -19 l 198 0 q 133 -85 157 -40 q 110 -174 110 -131 q 130 -227 110 -208 q 178 -247 150 -247 q 219 -242 201 -247 q 251 -228 236 -237 l 271 -280 "},"ð":{"x_min":46,"x_max":468,"ha":514,"o":"m 188 214 q 206 154 188 174 q 257 134 225 134 q 307 154 288 134 q 326 214 326 174 l 326 490 q 307 550 326 530 q 257 571 288 571 q 206 550 225 571 q 188 490 188 530 l 188 214 m 215 889 q 108 948 175 922 l 223 1009 q 334 944 287 987 l 428 989 l 468 933 l 380 893 q 423 818 406 858 q 449 736 440 779 q 463 650 459 693 q 468 566 468 607 l 468 236 q 462 157 468 193 q 441 93 456 121 q 369 19 416 47 q 257 -8 322 -8 q 144 19 191 -8 q 72 93 97 47 q 51 157 57 121 q 46 236 46 193 l 46 468 q 51 547 46 511 q 72 611 57 583 q 144 685 97 657 q 256 713 191 713 q 293 703 275 713 q 323 680 311 694 l 326 683 q 300 770 315 732 q 261 837 284 808 l 158 789 l 119 844 l 215 889 "},"℮":{"x_min":47,"x_max":1164,"ha":1213,"o":"m 260 481 q 253 475 253 481 l 253 201 q 264 169 253 183 q 418 61 330 101 q 605 21 505 21 q 806 66 713 21 q 966 187 899 111 l 1045 187 q 855 45 970 98 q 603 -7 740 -7 q 387 32 488 -7 q 210 139 285 72 q 90 297 134 206 q 47 492 47 388 q 90 689 47 597 q 210 849 134 781 q 387 957 285 917 q 604 997 488 997 q 822 957 720 997 q 1000 849 923 917 q 1120 689 1076 782 q 1164 493 1164 597 l 1164 481 l 260 481 m 958 791 q 945 823 958 810 q 792 927 878 888 q 605 966 705 966 q 418 925 505 966 q 265 819 332 885 q 253 784 253 806 l 253 516 q 260 507 253 507 l 952 507 q 958 516 958 507 l 958 791 "},"ş":{"x_min":34,"x_max":455,"ha":488,"o":"m 315 507 q 292 561 313 543 q 243 580 270 580 q 191 558 209 580 q 174 509 174 536 q 183 470 174 489 q 233 436 193 452 l 316 403 q 425 320 395 372 q 455 204 455 267 q 439 121 455 160 q 395 54 423 83 q 328 8 367 25 q 244 -8 290 -8 q 165 5 202 -8 q 99 46 128 19 q 53 111 71 72 q 34 204 35 151 l 167 204 q 187 149 171 174 q 243 125 202 125 q 297 145 273 125 q 322 201 322 165 q 306 251 322 230 q 251 287 291 272 l 183 312 q 79 387 117 337 q 41 507 41 436 q 57 589 41 551 q 102 655 74 628 q 168 697 130 682 q 248 713 205 713 q 328 696 291 713 q 391 653 364 680 q 432 588 417 626 q 448 507 448 550 l 315 507 m 233 0 l 296 0 l 233 -83 q 254 -81 244 -82 q 276 -81 265 -81 q 333 -90 310 -81 q 369 -116 355 -100 q 388 -150 382 -132 q 394 -184 394 -168 q 378 -242 394 -218 q 337 -281 362 -266 q 282 -304 312 -297 q 223 -311 252 -311 q 148 -301 182 -311 q 94 -285 113 -291 l 117 -226 q 162 -240 139 -234 q 207 -247 184 -247 q 232 -244 219 -247 q 256 -236 245 -242 q 275 -219 267 -230 q 283 -190 283 -208 q 263 -152 283 -166 q 220 -138 244 -138 q 166 -147 191 -138 l 142 -119 l 233 0 "},"ı":{"x_min":58,"x_max":200,"ha":258,"o":"m 58 704 l 200 704 l 200 0 l 58 0 l 58 704 "},"ä":{"x_min":35,"x_max":468,"ha":514,"o":"m 326 72 l 323 72 q 267 12 295 33 q 187 -8 239 -8 q 136 0 162 -8 q 87 27 109 7 q 49 84 64 47 q 35 179 35 121 q 44 284 35 239 q 80 359 54 329 q 148 403 105 388 q 258 418 191 418 q 288 416 273 418 q 326 414 303 415 l 326 487 q 310 547 326 523 q 255 571 295 571 q 205 552 228 571 q 176 500 182 534 l 38 500 q 101 653 44 596 q 168 696 129 680 q 255 713 207 713 q 339 699 300 713 q 406 657 377 685 q 451 587 434 629 q 468 490 468 546 l 468 0 l 326 0 l 326 72 m 326 302 q 287 307 302 307 q 209 285 241 307 q 177 207 177 264 q 196 141 177 166 q 250 117 215 117 q 305 140 285 117 q 326 207 326 164 l 326 302 m 82 956 l 207 956 l 207 814 l 82 814 l 82 956 m 307 956 l 432 956 l 432 814 l 307 814 l 307 956 "},"¹":{"x_min":37.328125,"x_max":240,"ha":336,"o":"m 129 889 l 37 829 l 37 929 l 129 989 l 240 989 l 240 399 l 129 399 l 129 889 "},"£":{"x_min":18.25,"x_max":531.59375,"ha":516,"o":"m 18 513 l 94 512 q 55 606 68 561 q 42 723 42 652 q 54 827 42 777 q 94 915 66 877 q 164 974 121 952 q 266 997 207 997 q 337 983 301 997 q 403 942 373 970 q 452 872 433 915 q 472 770 472 830 l 472 708 l 339 708 l 339 764 q 323 832 339 801 q 262 864 307 864 q 194 822 213 864 q 175 722 175 780 q 188 612 175 668 q 219 513 202 557 l 380 513 l 380 414 l 251 414 q 268 361 260 387 q 276 291 276 336 q 263 212 276 249 q 231 140 251 174 q 285 131 255 137 q 345 125 316 125 q 390 131 369 125 q 437 169 412 138 l 531 73 q 462 10 499 29 q 377 -8 426 -8 q 327 -3 357 -8 q 263 5 296 0 q 197 13 230 9 q 141 18 165 18 q 78 10 111 18 q 32 -4 45 2 l 32 115 q 70 131 43 122 q 120 143 97 140 q 148 200 138 169 q 158 263 158 231 q 149 335 158 294 q 126 414 141 376 l 18 414 l 18 513 "},"W":{"x_min":22.21875,"x_max":801.453125,"ha":824,"o":"m 654 0 l 520 0 l 412 641 l 409 641 l 302 0 l 169 0 l 22 989 l 172 989 l 243 361 l 245 361 l 356 989 l 465 989 l 580 345 l 583 345 l 651 989 l 801 989 l 654 0 "},"Ğ":{"x_min":58,"x_max":534,"ha":592,"o":"m 58 755 q 78 860 58 815 q 133 936 99 906 q 210 981 167 966 q 296 997 252 997 q 381 981 339 997 q 458 936 424 966 q 513 860 492 906 q 534 754 534 814 l 534 704 l 392 704 l 392 754 q 363 830 392 806 q 296 855 334 855 q 228 830 257 855 q 200 755 200 806 l 200 233 q 228 158 200 182 q 296 134 257 134 q 363 158 334 134 q 392 233 392 182 l 392 419 l 279 419 l 279 544 l 534 544 l 534 233 q 513 127 534 172 q 458 52 492 82 q 381 7 424 22 q 296 -8 339 -8 q 210 7 252 -8 q 133 52 167 22 q 78 127 99 82 q 58 233 58 172 l 58 755 m 510 1278 q 296 1089 480 1089 q 82 1278 111 1089 l 152 1278 q 163 1239 155 1258 q 187 1205 170 1220 q 230 1181 204 1190 q 296 1172 257 1172 q 361 1181 334 1172 q 404 1205 387 1190 q 428 1239 421 1220 q 439 1278 436 1258 l 510 1278 "},"v":{"x_min":-1.390625,"x_max":490.3125,"ha":489,"o":"m 306 0 l 181 0 l -1 704 l 148 704 l 243 254 l 245 254 l 340 704 l 490 704 l 306 0 "},">":{"x_min":65.28125,"x_max":768.109375,"ha":833,"o":"m 65 100 l 616 351 l 65 602 l 65 714 l 768 393 l 768 309 l 65 -11 l 65 100 "},"û":{"x_min":58,"x_max":482,"ha":540,"o":"m 482 0 l 340 0 l 340 68 l 337 68 q 283 13 314 35 q 204 -8 252 -8 q 151 1 177 -8 q 103 30 124 10 q 70 84 83 51 q 58 164 58 116 l 58 704 l 200 704 l 200 217 q 218 156 200 178 q 269 134 236 134 q 324 158 309 134 q 340 231 340 183 l 340 704 l 482 704 l 482 0 m 206 993 l 336 993 l 472 797 l 363 797 l 270 929 l 177 797 l 69 797 l 206 993 "},"Ð":{"x_min":0.328125,"x_max":525,"ha":592,"o":"m 209 578 l 306 578 l 306 486 l 209 486 l 209 133 l 273 133 q 358 162 333 133 q 383 256 383 192 l 383 733 q 359 824 383 792 q 273 856 336 856 l 209 856 l 209 578 m 67 486 l 0 486 l 0 578 l 67 578 l 67 989 l 276 989 q 461 921 397 989 q 525 733 525 854 l 525 270 q 457 65 525 131 q 264 0 390 0 l 67 0 l 67 486 "},"ˉ":{"x_min":-61,"x_max":320,"ha":259,"o":"m -61 926 l 320 926 l 320 843 l -61 843 l -61 926 "},"r":{"x_min":58,"x_max":387.515625,"ha":386,"o":"m 58 704 l 200 704 l 200 629 q 284 690 243 668 q 387 713 326 713 l 387 562 q 344 571 366 571 q 296 563 322 571 q 249 537 270 555 q 213 490 227 519 q 200 418 200 461 l 200 0 l 58 0 l 58 704 "},"x":{"x_min":-15,"x_max":477,"ha":462,"o":"m 158 359 l -6 704 l 143 704 l 231 504 l 318 704 l 468 704 l 300 359 l 477 0 l 326 0 l 231 215 l 135 0 l -15 0 l 158 359 "},"è":{"x_min":46,"x_max":468,"ha":514,"o":"m 188 299 l 188 203 q 206 152 188 170 q 257 134 225 134 q 310 157 297 134 q 326 205 323 181 l 468 205 q 453 121 468 160 q 411 54 438 82 q 344 8 383 25 q 257 -8 305 -8 q 144 19 191 -8 q 72 93 97 47 q 51 157 57 121 q 46 236 46 193 l 46 468 q 51 547 46 511 q 72 611 57 583 q 144 685 97 657 q 257 713 191 713 q 345 696 305 713 q 411 649 384 679 q 453 579 438 619 q 468 493 468 539 l 468 299 l 188 299 m 188 410 l 326 410 l 326 490 q 307 550 326 530 q 257 571 288 571 q 206 550 225 571 q 188 490 188 530 l 188 410 m 346 797 l 255 797 l 72 993 l 222 993 l 346 797 "},"Ø":{"x_min":13.546875,"x_max":578.453125,"ha":592,"o":"m 82 121 q 58 233 58 168 l 58 755 q 78 861 58 815 q 133 936 99 906 q 210 981 167 966 q 295 997 252 997 q 388 978 343 997 q 469 924 433 960 l 526 1041 l 578 1010 l 509 867 q 527 817 520 845 q 534 755 534 788 l 534 233 q 513 127 534 172 q 458 52 492 82 q 381 7 424 22 q 296 -8 339 -8 q 201 10 247 -8 q 122 64 155 28 l 66 -52 l 13 -21 l 82 121 m 392 762 q 360 832 389 810 q 296 855 332 855 q 228 830 257 855 q 200 755 200 806 l 200 364 l 203 364 l 392 762 m 200 226 q 230 156 202 179 q 296 134 258 134 q 363 158 334 134 q 392 233 392 182 l 392 623 l 389 623 l 200 226 "},"÷":{"x_min":65.28125,"x_max":768.109375,"ha":833,"o":"m 65 407 l 768 407 l 768 296 l 65 296 l 65 407 m 328 64 q 354 126 328 100 q 417 153 380 153 q 479 126 453 153 q 506 64 506 100 q 479 1 506 27 q 417 -25 453 -25 q 354 1 380 -25 q 328 64 328 27 m 328 639 q 354 701 328 675 q 417 728 380 728 q 479 701 453 728 q 506 639 506 675 q 479 576 506 602 q 417 550 453 550 q 354 576 380 550 q 328 639 328 602 "},"μ":{"x_min":58,"x_max":482,"ha":540,"o":"m 482 0 l 340 0 l 340 69 l 337 69 q 315 34 327 49 q 292 10 303 19 q 245 -8 269 -8 q 203 6 216 -8 l 200 5 l 200 -285 l 58 -285 l 58 704 l 200 704 l 200 217 q 218 156 200 178 q 269 134 236 134 q 324 158 309 134 q 340 231 340 183 l 340 704 l 482 704 l 482 0 "},"h":{"x_min":58,"x_max":482,"ha":540,"o":"m 58 989 l 200 989 l 200 636 l 203 636 q 256 691 225 669 q 336 713 287 713 q 388 703 362 713 q 436 674 415 694 q 469 620 456 653 q 482 540 482 587 l 482 0 l 340 0 l 340 487 q 321 548 340 526 q 270 571 303 571 q 215 545 230 571 q 200 473 200 520 l 200 0 l 58 0 l 58 989 "},".":{"x_min":58,"x_max":200,"ha":258,"o":"m 58 142 l 200 142 l 200 0 l 58 0 l 58 142 "},"f":{"x_min":6.546875,"x_max":323.5625,"ha":308,"o":"m 76 593 l 6 593 l 6 704 l 76 704 l 76 799 q 91 886 76 851 q 132 945 106 922 q 190 978 158 968 q 258 989 223 989 l 323 989 l 323 856 l 259 856 q 218 807 218 856 l 218 704 l 323 704 l 323 593 l 218 593 l 218 0 l 76 0 l 76 593 "},"“":{"x_min":25,"x_max":361,"ha":386,"o":"m 361 744 l 219 744 l 219 886 l 361 989 l 361 744 m 167 744 l 25 744 l 25 885 l 167 989 l 167 744 "},"A":{"x_min":2.78125,"x_max":562.546875,"ha":565,"o":"m 283 704 l 280 704 l 211 346 l 352 346 l 283 704 m 223 989 l 341 989 l 562 0 l 420 0 l 379 213 l 186 213 l 144 0 l 2 0 l 223 989 "},"O":{"x_min":58,"x_max":534,"ha":592,"o":"m 58 755 q 78 860 58 815 q 133 936 99 906 q 210 981 167 966 q 296 997 252 997 q 381 981 339 997 q 458 936 424 966 q 513 860 492 906 q 534 755 534 815 l 534 233 q 513 127 534 172 q 458 52 492 82 q 381 7 424 22 q 296 -8 339 -8 q 210 7 252 -8 q 133 52 167 22 q 78 127 99 82 q 58 233 58 172 l 58 755 m 200 233 q 228 158 200 182 q 296 134 257 134 q 363 158 334 134 q 392 233 392 182 l 392 755 q 363 830 392 806 q 296 855 334 855 q 228 830 257 855 q 200 755 200 806 l 200 233 "},"π":{"x_min":9.59375,"x_max":568.21875,"ha":586,"o":"m 496 597 l 496 177 q 498 70 496 111 q 508 0 501 29 l 382 0 q 364 179 364 44 l 364 597 l 242 597 q 234 465 239 542 q 221 306 229 388 q 202 143 214 224 q 176 0 190 62 l 49 0 q 74 145 63 65 q 93 306 86 224 q 106 463 101 387 q 111 597 111 538 q 57 594 76 597 q 26 587 38 591 l 9 687 q 69 716 29 703 q 172 729 109 729 l 568 729 l 559 597 l 496 597 "},"‘":{"x_min":58,"x_max":200,"ha":258,"o":"m 200 744 l 58 744 l 58 886 l 200 989 l 200 744 "},"3":{"x_min":47,"x_max":470,"ha":517,"o":"m 215 572 q 303 587 279 572 q 328 658 328 602 l 328 785 q 309 835 328 816 q 258 855 290 855 q 204 831 220 855 q 189 785 189 807 l 189 704 l 47 704 l 47 786 q 63 868 47 830 q 109 935 80 907 q 177 980 138 963 q 261 997 216 997 q 357 974 319 997 q 415 927 396 951 q 440 893 429 910 q 456 853 450 876 q 466 797 463 830 q 470 717 470 765 q 467 634 470 666 q 456 581 465 602 q 430 544 447 559 q 382 510 412 528 q 433 472 415 490 q 458 429 450 454 q 468 371 467 405 q 470 284 470 337 q 467 204 470 236 q 461 150 465 172 q 450 114 457 129 q 432 82 443 98 q 364 17 406 43 q 257 -8 322 -8 q 186 3 223 -8 q 117 39 148 14 q 67 104 87 64 q 47 203 47 145 l 47 284 l 189 284 l 189 210 q 207 155 189 177 q 258 134 226 134 q 309 155 290 134 q 328 212 328 176 l 328 354 q 323 401 328 383 q 305 429 318 419 q 271 443 293 440 q 215 447 250 447 l 215 572 "},"9":{"x_min":47,"x_max":470,"ha":517,"o":"m 259 415 l 257 418 q 235 409 250 412 q 197 406 220 406 q 127 424 159 406 q 77 469 95 442 q 62 499 67 483 q 53 540 56 515 q 48 603 49 565 q 47 700 47 641 q 48 779 47 748 q 53 832 49 811 q 63 869 56 854 q 79 901 69 884 q 153 972 106 947 q 258 997 200 997 q 362 971 316 997 q 436 901 408 945 q 453 869 446 884 q 463 832 460 853 q 468 779 467 810 q 470 699 470 748 q 468 624 470 654 q 463 572 467 594 q 455 533 460 551 q 443 497 450 516 l 257 0 l 98 0 l 259 415 m 189 601 q 209 550 189 569 q 258 531 230 531 q 307 550 286 531 q 328 601 328 569 l 328 784 q 307 835 328 816 q 258 855 286 855 q 209 835 230 855 q 189 784 189 816 l 189 601 "},"l":{"x_min":50,"x_max":261.4375,"ha":258,"o":"m 50 989 l 192 989 l 192 198 q 206 144 192 158 q 261 125 221 129 l 261 -8 q 173 0 212 -8 q 106 28 133 7 q 64 89 79 50 q 50 189 50 128 l 50 989 "},"4":{"x_min":13,"x_max":504.0625,"ha":517,"o":"m 294 147 l 13 147 l 13 280 l 217 989 l 367 989 l 155 280 l 294 280 l 294 561 l 436 561 l 436 280 l 504 280 l 504 147 l 436 147 l 436 0 l 294 0 l 294 147 "},"Ü":{"x_min":67,"x_max":526,"ha":592,"o":"m 526 222 q 507 132 526 173 q 458 59 489 90 q 385 10 427 28 q 296 -8 343 -8 q 207 10 249 -8 q 134 59 165 28 q 85 132 103 90 q 67 222 67 173 l 67 989 l 209 989 l 209 236 q 234 158 209 183 q 296 134 259 134 q 359 158 334 134 q 384 236 384 183 l 384 989 l 526 989 l 526 222 m 121 1192 l 246 1192 l 246 1050 l 121 1050 l 121 1192 m 346 1192 l 471 1192 l 471 1050 l 346 1050 l 346 1192 "},"à":{"x_min":35,"x_max":468,"ha":514,"o":"m 326 72 l 323 72 q 266 12 295 33 q 187 -8 238 -8 q 136 0 162 -8 q 86 27 109 7 q 49 84 64 47 q 35 179 35 121 q 44 284 35 239 q 80 359 54 329 q 148 403 105 388 q 258 418 191 418 q 288 416 273 418 q 326 414 303 415 l 326 487 q 310 547 326 523 q 255 571 295 571 q 205 552 228 571 q 176 500 182 534 l 38 500 q 101 653 44 596 q 168 696 129 680 q 255 713 207 713 q 339 699 300 713 q 406 657 377 685 q 451 587 434 629 q 468 490 468 546 l 468 0 l 326 0 l 326 72 m 326 302 q 287 307 302 307 q 209 285 241 307 q 177 207 177 264 q 196 141 177 166 q 250 117 215 117 q 305 140 285 117 q 326 207 326 164 l 326 302 m 346 797 l 255 797 l 72 993 l 222 993 l 346 797 "},"ó":{"x_min":46,"x_max":468,"ha":514,"o":"m 46 468 q 51 547 46 511 q 72 611 57 583 q 144 685 97 657 q 257 713 191 713 q 369 685 322 713 q 441 611 416 657 q 462 547 456 583 q 468 468 468 511 l 468 236 q 462 157 468 193 q 441 93 456 121 q 369 19 416 47 q 257 -8 322 -8 q 144 19 191 -8 q 72 93 97 47 q 51 157 57 121 q 46 236 46 193 l 46 468 m 188 214 q 206 154 188 174 q 257 134 225 134 q 307 154 288 134 q 326 214 326 174 l 326 490 q 307 550 326 530 q 257 571 288 571 q 206 550 225 571 q 188 490 188 530 l 188 214 m 291 993 l 441 993 l 258 797 l 167 797 l 291 993 "}}}
